<svg width="454" height="468" viewBox="0 0 454 468" fill="none" xmlns="http://www.w3.org/2000/svg">
<path d="M251.88 1.25H35.6297C30.6867 1.25 26.6797 5.25705 26.6797 10.2V192.87C26.6797 197.813 30.6867 201.82 35.6297 201.82H251.88C256.823 201.82 260.83 197.813 260.83 192.87V10.2C260.83 5.25705 256.823 1.25 251.88 1.25Z" fill="#F4F7FF" stroke="#263238" stroke-width="2.5" stroke-linecap="round" stroke-linejoin="round"/>
<path d="M220.12 27.9697H207.39C205.733 27.9697 204.39 29.3129 204.39 30.9697V43.6997C204.39 45.3566 205.733 46.6997 207.39 46.6997H220.12C221.776 46.6997 223.12 45.3566 223.12 43.6997V30.9697C223.12 29.3129 221.776 27.9697 220.12 27.9697Z" fill="#F4F7FF" stroke="#263238" stroke-width="2.5" stroke-linecap="round" stroke-linejoin="round"/>
<path d="M220.12 69.5098H207.39C205.733 69.5098 204.39 70.8529 204.39 72.5098V85.2398C204.39 86.8966 205.733 88.2398 207.39 88.2398H220.12C221.776 88.2398 223.12 86.8966 223.12 85.2398V72.5098C223.12 70.8529 221.776 69.5098 220.12 69.5098Z" fill="#F4F7FF" stroke="#263238" stroke-width="2.5" stroke-linecap="round" stroke-linejoin="round"/>
<path d="M220.12 111.04H207.39C205.733 111.04 204.39 112.383 204.39 114.04V126.77C204.39 128.426 205.733 129.77 207.39 129.77H220.12C221.776 129.77 223.12 128.426 223.12 126.77V114.04C223.12 112.383 221.776 111.04 220.12 111.04Z" fill="#F4F7FF" stroke="#263238" stroke-width="2.5" stroke-linecap="round" stroke-linejoin="round"/>
<path d="M220.12 152.58H207.39C205.733 152.58 204.39 153.923 204.39 155.58V168.31C204.39 169.966 205.733 171.31 207.39 171.31H220.12C221.776 171.31 223.12 169.966 223.12 168.31V155.58C223.12 153.923 221.776 152.58 220.12 152.58Z" fill="#F4F7FF" stroke="#263238" stroke-width="2.5" stroke-linecap="round" stroke-linejoin="round"/>
<path d="M134 24H115C112.791 24 111 25.7909 111 28V47C111 49.2091 112.791 51 115 51H134C136.209 51 138 49.2091 138 47V28C138 25.7909 136.209 24 134 24Z" fill="#F4F7FF" stroke="#263238" stroke-width="2.5" stroke-linecap="round" stroke-linejoin="round"/>
<path d="M131 70H118.27C116.613 70 115.27 71.3431 115.27 73V85.73C115.27 87.3869 116.613 88.73 118.27 88.73H131C132.656 88.73 134 87.3868 134 85.73V73C134 71.3431 132.656 70 131 70Z" fill="#F4F7FF" stroke="#263238" stroke-width="2.5" stroke-linecap="round" stroke-linejoin="round"/>
<path d="M118 38.5429L121.247 43L131 31" fill="#F4F7FF"/>
<path d="M118 38.5429L121.247 43L131 31" stroke="#EC644E" stroke-width="4" stroke-linecap="round" stroke-linejoin="round"/>
<path d="M131 111H118.27C116.613 111 115.27 112.343 115.27 114V126.73C115.27 128.387 116.613 129.73 118.27 129.73H131C132.656 129.73 134 128.387 134 126.73V114C134 112.343 132.656 111 131 111Z" fill="#F4F7FF" stroke="#263238" stroke-width="2.5" stroke-linecap="round" stroke-linejoin="round"/>
<path d="M131 153H118.27C116.613 153 115.27 154.343 115.27 156V168.73C115.27 170.387 116.613 171.73 118.27 171.73H131C132.656 171.73 134 170.387 134 168.73V156C134 154.343 132.656 153 131 153Z" fill="#F4F7FF" stroke="#263238" stroke-width="2.5" stroke-linecap="round" stroke-linejoin="round"/>
<path d="M66.2197 34L69.3628 32.7428C70.5548 32.266 71.8846 32.266 73.0767 32.7428L74.3628 33.2572C75.5548 33.734 76.8846 33.734 78.0767 33.2572L79.3628 32.7428C80.5548 32.266 81.8846 32.266 83.0767 32.7428L84.3628 33.2572C85.5548 33.734 86.8846 33.734 88.0767 33.2572L89.3628 32.7428C90.5548 32.266 91.8846 32.266 93.0767 32.7428L96.2197 34" stroke="#263238" stroke-width="2.5" stroke-linecap="round" stroke-linejoin="round"/>
<path d="M67 41.6699L70.143 40.4127C71.3351 39.9359 72.6649 39.9359 73.857 40.4127L75.143 40.9271C76.3351 41.404 77.6649 41.404 78.857 40.9271L80.143 40.4127C81.3351 39.9359 82.6649 39.9359 83.857 40.4127L87 41.6699" stroke="#263238" stroke-width="2.5" stroke-linecap="round" stroke-linejoin="round"/>
<path d="M66.2197 118L69.3628 116.743C70.5548 116.266 71.8846 116.266 73.0767 116.743L74.3628 117.257C75.5548 117.734 76.8846 117.734 78.0767 117.257L79.3628 116.743C80.5548 116.266 81.8846 116.266 83.0767 116.743L84.3628 117.257C85.5548 117.734 86.8846 117.734 88.0767 117.257L89.3628 116.743C90.5548 116.266 91.8846 116.266 93.0767 116.743L94.3628 117.257C95.5548 117.734 96.8846 117.734 98.0767 117.257L99.3628 116.743C100.555 116.266 101.885 116.266 103.077 116.743L106.22 118" stroke="#263238" stroke-width="2.5" stroke-linecap="round" stroke-linejoin="round"/>
<path d="M67 125.67L70.143 124.413C71.3351 123.936 72.6649 123.936 73.857 124.413L75.143 124.927C76.3351 125.404 77.6649 125.404 78.857 124.927L80.143 124.413C81.3351 123.936 82.6649 123.936 83.857 124.413L87 125.67" stroke="#263238" stroke-width="2.5" stroke-linecap="round" stroke-linejoin="round"/>
<path d="M66.2197 76L69.3628 74.7428C70.5548 74.266 71.8846 74.266 73.0767 74.7428L74.3628 75.2572C75.5548 75.734 76.8846 75.734 78.0767 75.2572L79.3628 74.7428C80.5548 74.266 81.8846 74.266 83.0767 74.7428L84.3628 75.2572C85.5548 75.734 86.8846 75.734 88.0767 75.2572L89.3628 74.7428C90.5548 74.266 91.8846 74.266 93.0767 74.7428L94.3628 75.2572C95.5548 75.734 96.8846 75.734 98.0767 75.2572L99.3628 74.7428C100.555 74.266 101.885 74.266 103.077 74.7428L106.22 76" stroke="#263238" stroke-width="2.5" stroke-linecap="round" stroke-linejoin="round"/>
<path d="M67 83.6699L70.143 82.4127C71.3351 81.9359 72.6649 81.9359 73.857 82.4127L75.143 82.9271C76.3351 83.404 77.6649 83.404 78.857 82.9271L80.143 82.4127C81.3351 81.9359 82.6649 81.9359 83.857 82.4127L87 83.6699" stroke="#263238" stroke-width="2.5" stroke-linecap="round" stroke-linejoin="round"/>
<path d="M66.2197 159L69.3628 157.743C70.5548 157.266 71.8846 157.266 73.0767 157.743L74.3628 158.257C75.5548 158.734 76.8846 158.734 78.0767 158.257L79.3628 157.743C80.5548 157.266 81.8846 157.266 83.0767 157.743L84.3628 158.257C85.5548 158.734 86.8846 158.734 88.0767 158.257L89.3628 157.743C90.5548 157.266 91.8846 157.266 93.0767 157.743L94.3628 158.257C95.5548 158.734 96.8846 158.734 98.0767 158.257L99.3628 157.743C100.555 157.266 101.885 157.266 103.077 157.743L106.22 159" stroke="#263238" stroke-width="2.5" stroke-linecap="round" stroke-linejoin="round"/>
<path d="M67 166.67L70.143 165.413C71.3351 164.936 72.6649 164.936 73.857 165.413L75.143 165.927C76.3351 166.404 77.6649 166.404 78.857 165.927L80.143 165.413C81.3351 164.936 82.6649 164.936 83.857 165.413L87 166.67" stroke="#263238" stroke-width="2.5" stroke-linecap="round" stroke-linejoin="round"/>
<path d="M157 34L160.143 32.7428C161.335 32.266 162.665 32.266 163.857 32.7428L165.143 33.2572C166.335 33.734 167.665 33.734 168.857 33.2572L170.143 32.7428C171.335 32.266 172.665 32.266 173.857 32.7428L175.143 33.2572C176.335 33.734 177.665 33.734 178.857 33.2572L180.143 32.7428C181.335 32.266 182.665 32.266 183.857 32.7428L185.143 33.2572C186.335 33.734 187.665 33.734 188.857 33.2572L190.143 32.7428C191.335 32.266 192.665 32.266 193.857 32.7428L197 34" stroke="#263238" stroke-width="2.5" stroke-linecap="round" stroke-linejoin="round"/>
<path d="M157.78 41.6699L160.923 40.4127C162.115 39.9359 163.445 39.9359 164.637 40.4127L165.923 40.9271C167.115 41.404 168.445 41.404 169.637 40.9271L170.923 40.4127C172.115 39.9359 173.445 39.9359 174.637 40.4127L177.78 41.6699" stroke="#263238" stroke-width="2.5" stroke-linecap="round" stroke-linejoin="round"/>
<path d="M157 76L160.143 74.7428C161.335 74.266 162.665 74.266 163.857 74.7428L165.143 75.2572C166.335 75.734 167.665 75.734 168.857 75.2572L170.143 74.7428C171.335 74.266 172.665 74.266 173.857 74.7428L175.143 75.2572C176.335 75.734 177.665 75.734 178.857 75.2572L180.143 74.7428C181.335 74.266 182.665 74.266 183.857 74.7428L185.143 75.2572C186.335 75.734 187.665 75.734 188.857 75.2572L190.143 74.7428C191.335 74.266 192.665 74.266 193.857 74.7428L197 76" stroke="#263238" stroke-width="2.5" stroke-linecap="round" stroke-linejoin="round"/>
<path d="M157.78 83.6699L160.923 82.4127C162.115 81.9359 163.445 81.9359 164.637 82.4127L165.923 82.9271C167.115 83.404 168.445 83.404 169.637 82.9271L170.923 82.4127C172.115 81.9359 173.445 81.9359 174.637 82.4127L177.78 83.6699" stroke="#263238" stroke-width="2.5" stroke-linecap="round" stroke-linejoin="round"/>
<path d="M57.1209 171.23C52.5909 174.71 39.6309 173.96 39.6309 173.96C39.6309 173.96 42.8709 162.04 47.4009 158.56C51.9309 155.08 60.4709 158.59 60.4709 158.59C60.4709 158.59 61.6609 167.74 57.1309 171.22L57.1209 171.23Z" fill="white" stroke="#263238" stroke-width="2.5" stroke-linecap="round" stroke-linejoin="round"/>
<path d="M60.4716 158.6C60.4716 158.6 51.9316 155.09 47.4016 158.57C46.4916 159.27 45.6416 160.3 44.8516 161.51C45.0016 161.37 45.1616 161.24 45.3216 161.12C49.8516 157.64 58.3916 161.15 58.3916 161.15C58.3916 161.15 59.1716 167.15 57.0616 171.28C57.0816 171.26 57.1116 171.25 57.1316 171.23C61.6616 167.75 60.4716 158.6 60.4716 158.6Z" fill="white"/>
<path d="M57.1209 171.23C52.5909 174.71 39.6309 173.96 39.6309 173.96C39.6309 173.96 42.8709 162.04 47.4009 158.56C51.9309 155.08 60.4709 158.59 60.4709 158.59C60.4709 158.59 61.6609 167.74 57.1309 171.22L57.1209 171.23Z" fill="#B4E072" stroke="#263238" stroke-width="2.5" stroke-linecap="round" stroke-linejoin="round"/>
<path d="M22.4912 171.23C27.0212 174.71 39.9812 173.96 39.9812 173.96C39.9812 173.96 36.7412 162.04 32.2112 158.56C27.6812 155.08 19.1412 158.59 19.1412 158.59C19.1412 158.59 17.9512 167.74 22.4812 171.22L22.4912 171.23Z" fill="#9ABAE3"/>
<path d="M20.4812 161.93C20.4812 161.93 29.0212 158.42 33.5512 161.9C35.4912 163.39 37.2012 166.44 38.5112 169.43C37.1412 165.67 34.9112 160.63 32.2112 158.56C27.6812 155.08 19.1412 158.59 19.1412 158.59C19.1412 158.59 18.2812 165.26 20.8512 169.37C19.9812 165.73 20.4712 161.92 20.4712 161.92L20.4812 161.93Z" fill="white"/>
<path d="M22.4912 171.23C27.0212 174.71 39.9812 173.96 39.9812 173.96C39.9812 173.96 36.7412 162.04 32.2112 158.56C27.6812 155.08 19.1412 158.59 19.1412 158.59C19.1412 158.59 17.9512 167.74 22.4812 171.22L22.4912 171.23Z" fill="#B4E072" stroke="#263238" stroke-width="2.5" stroke-linecap="round" stroke-linejoin="round"/>
<path d="M48.0413 159.33C48.0613 165.04 39.6013 174.89 39.6013 174.89C39.6013 174.89 32.0913 165.09 32.0713 159.37C32.0513 153.66 40.0313 149 40.0313 149C40.0313 149 48.0313 153.61 48.0413 159.32V159.33Z" fill="#B4E072" stroke="#263238" stroke-width="2.5" stroke-linecap="round" stroke-linejoin="round"/>
<path d="M48.0413 159.33C48.0613 165.04 39.6013 174.89 39.6013 174.89C39.6013 174.89 32.0913 165.09 32.0713 159.37C32.0513 153.66 40.0313 149 40.0313 149C40.0313 149 48.0313 153.61 48.0413 159.32V159.33Z" stroke="#263238" stroke-width="2.5" stroke-linecap="round" stroke-linejoin="round"/>
<path d="M50.8609 201.44H28.0809L23.1709 174.02H55.7709L50.8609 201.44Z" fill="#FFCA70" stroke="#263238" stroke-width="2.5" stroke-linecap="round" stroke-linejoin="round"/>
<path d="M23.6509 176.71L23.1709 174.02H55.7709L50.8609 201.44H47.7409L49.9809 188.94H24.5809C24.5109 188.02 24.3309 187.12 24.0709 186.25H50.4609L52.1709 176.72H23.6509V176.71Z" fill="#FFCA70"/>
<path d="M50.8609 201.44H28.0809L23.1709 174.02H55.7709L50.8609 201.44Z" fill="#FFCA70" stroke="#263238" stroke-width="2.5" stroke-linecap="round" stroke-linejoin="round"/>
<path d="M24.4707 179.13H54.6307" stroke="#263238" stroke-width="2.5" stroke-linecap="round" stroke-linejoin="round"/>
<path d="M304.92 56.3101H391.7C396.5 56.3101 400.39 60.2001 400.39 65.0001V130.94C400.39 135.74 396.5 139.63 391.7 139.63H363.81L366.66 159.68C366.92 161.52 364.89 162.8 363.34 161.79L329.6 139.64H304.92C300.12 139.64 296.23 135.75 296.23 130.95V65.0001C296.23 60.2001 300.12 56.3101 304.92 56.3101Z" fill="white" stroke="#263238" stroke-width="2.5" stroke-linecap="round" stroke-linejoin="round"/>
<path d="M318.13 77.84V119.47C318.13 121.707 319.943 123.52 322.18 123.52H370.85C373.087 123.52 374.9 121.707 374.9 119.47V77.84C374.9 75.6033 373.087 73.79 370.85 73.79H322.18C319.943 73.79 318.13 75.6033 318.13 77.84Z" fill="#EC644E" stroke="#263238" stroke-width="2.5" stroke-linecap="round" stroke-linejoin="round"/>
<path d="M318.12 88.6503V77.8303C318.12 75.5903 319.94 73.7803 322.18 73.7803H370.84C373.08 73.7803 374.89 75.6003 374.89 77.8303V88.6503H318.12Z" fill="white" stroke="#263238" stroke-width="2.5" stroke-linecap="round" stroke-linejoin="round"/>
<path d="M362.66 68.3301V78.8701" stroke="#263238" stroke-width="2.5" stroke-linecap="round" stroke-linejoin="round"/>
<path d="M330.24 68.3301V78.8701" stroke="#263238" stroke-width="2.5" stroke-linecap="round" stroke-linejoin="round"/>
<path d="M362.66 104.74C364.42 104.74 365.86 103.3 365.86 101.54C365.86 99.7798 364.42 98.3398 362.66 98.3398C360.9 98.3398 359.46 99.7798 359.46 101.54C359.46 103.3 360.9 104.74 362.66 104.74Z" fill="#263238"/>
<path d="M362.66 114.12C364.42 114.12 365.86 112.68 365.86 110.92C365.86 109.16 364.42 107.72 362.66 107.72C360.9 107.72 359.46 109.16 359.46 110.92C359.46 112.68 360.9 114.12 362.66 114.12Z" fill="#263238"/>
<path d="M352.11 104.74C353.87 104.74 355.31 103.3 355.31 101.54C355.31 99.7798 353.87 98.3398 352.11 98.3398C350.35 98.3398 348.91 99.7798 348.91 101.54C348.91 103.3 350.35 104.74 352.11 104.74Z" fill="#263238"/>
<path d="M352.11 114.12C353.87 114.12 355.31 112.68 355.31 110.92C355.31 109.16 353.87 107.72 352.11 107.72C350.35 107.72 348.91 109.16 348.91 110.92C348.91 112.68 350.35 114.12 352.11 114.12Z" fill="#263238"/>
<path d="M341.56 104.74C343.32 104.74 344.76 103.3 344.76 101.54C344.76 99.7798 343.32 98.3398 341.56 98.3398C339.8 98.3398 338.36 99.7798 338.36 101.54C338.36 103.3 339.8 104.74 341.56 104.74Z" fill="#263238"/>
<path d="M341.56 114.12C343.32 114.12 344.76 112.68 344.76 110.92C344.76 109.16 343.32 107.72 341.56 107.72C339.8 107.72 338.36 109.16 338.36 110.92C338.36 112.68 339.8 114.12 341.56 114.12Z" fill="#263238"/>
<path d="M331.02 104.74C332.78 104.74 334.22 103.3 334.22 101.54C334.22 99.7798 332.78 98.3398 331.02 98.3398C329.26 98.3398 327.82 99.7798 327.82 101.54C327.82 103.3 329.26 104.74 331.02 104.74Z" fill="#263238"/>
<path d="M331.02 114.12C332.78 114.12 334.22 112.68 334.22 110.92C334.22 109.16 332.78 107.72 331.02 107.72C329.26 107.72 327.82 109.16 327.82 110.92C327.82 112.68 329.26 114.12 331.02 114.12Z" fill="#263238"/>
<path d="M399.142 182.61C397.012 182.57 396.042 185.43 397.762 186.68C401.982 189.74 408.532 195.07 410.412 199.84C413.262 207.06 417.702 206.35 418.152 202.25C418.612 198.15 411.002 187.08 404.382 183.95C402.352 182.99 400.592 182.64 399.142 182.61Z" fill="#263238" stroke="#263238" stroke-width="2.5" stroke-linecap="round" stroke-linejoin="round"/>
<path d="M414.262 215.2C415.082 216.3 416.562 216.5 417.582 215.66C418.592 214.82 418.752 213.25 417.932 212.15C417.112 211.05 415.632 210.85 414.612 211.69C413.602 212.53 413.442 214.1 414.262 215.2Z" fill="#263238" stroke="#263238" stroke-width="2.5" stroke-linecap="round" stroke-linejoin="round"/>
<path d="M280.852 226.86C280.852 226.86 266.062 267.79 264.212 272.93C263.582 273.7 263.082 274.32 262.742 274.73C252.602 278.71 185.382 270.56 180.032 270.04C171.072 268.29 165.042 265.76 161.582 261.65C153.402 251.94 159.672 233.42 175.902 195.71C176.262 194.85 176.642 193.98 177.022 193.12C187.622 168.53 193.782 168.18 189.972 162.09C181.202 148.12 189.872 138.21 194.352 130.43C196.282 127.06 194.302 118.46 199.102 120.5C201.412 121.5 200.832 117.15 206.602 117.1C206.602 117.05 206.482 116.88 206.262 116.61C206.262 116.61 206.262 116.59 206.242 116.55C206.202 116.51 206.162 116.44 206.092 116.35C206.042 116.24 205.962 116.15 205.882 116.06C205.812 115.95 205.732 115.85 205.632 115.74C205.552 115.61 205.452 115.48 205.362 115.38C205.272 115.23 205.172 115.1 205.072 114.97C204.892 114.72 204.692 114.43 204.482 114.14C204.062 113.58 203.542 112.84 202.992 111.97C202.872 111.79 202.752 111.61 202.642 111.42C200.742 108.38 198.872 104.69 199.182 102.08C199.192 101.89 199.242 101.7 199.292 101.52C199.342 101.32 199.422 101.12 199.502 100.94C199.582 100.75 199.702 100.58 199.832 100.41C200.172 99.9502 200.682 99.5802 201.362 99.3002C208.412 96.4202 225.792 113.84 229.122 118.89C231.712 122.83 234.482 128.25 234.702 131.33C234.972 135.22 235.492 139.84 234.762 143.68L223.632 216.8C223.632 216.8 280.592 219.65 280.892 226.91L280.852 226.86Z" fill="#FCD8C3"/>
<path d="M196.252 128.47C196.092 129.36 195.872 130.18 195.512 130.81C191.032 138.59 182.362 148.51 191.132 162.47C194.942 168.56 188.782 168.91 178.182 193.5C177.802 194.37 177.432 195.24 177.062 196.09C160.832 233.8 154.562 252.32 162.742 262.03C165.732 265.57 170.632 267.94 177.672 269.65C175.552 268.49 173.822 267.14 172.482 265.55C164.302 255.84 170.572 237.32 186.802 199.61C187.162 198.75 187.542 197.88 187.922 197.02C198.522 172.43 202.122 170.3 198.302 164.2C189.532 150.23 195.772 140.6 200.262 132.82C201.072 131.4 196.252 128.47 196.252 128.47Z" fill="white"/>
<path d="M282.022 226.86C282.022 226.86 267.232 267.79 265.382 272.93C264.752 273.7 264.252 274.32 263.912 274.73C253.772 278.71 186.552 270.56 181.202 270.04C172.242 268.29 166.212 265.76 162.752 261.65C154.572 251.94 160.842 233.42 177.072 195.71C177.432 194.85 177.812 193.98 178.192 193.12C188.792 168.53 194.952 168.18 191.142 162.09C182.372 148.12 191.042 138.21 195.522 130.43C197.452 127.06 201.932 117.75 207.772 117.1C207.772 117.05 207.652 116.88 207.432 116.61C207.432 116.61 207.432 116.59 207.412 116.55C207.372 116.51 207.332 116.44 207.262 116.35C207.212 116.24 207.132 116.15 207.052 116.06C206.982 115.95 206.902 115.85 206.802 115.74C206.722 115.61 206.622 115.48 206.532 115.38C206.442 115.23 206.342 115.1 206.242 114.97C206.062 114.72 205.862 114.43 205.652 114.14C205.232 113.58 204.712 112.84 204.162 111.97C204.042 111.79 203.922 111.61 203.812 111.42C201.912 108.38 200.042 104.69 200.352 102.08C200.362 101.89 200.412 101.7 200.462 101.52C200.512 101.32 200.592 101.12 200.672 100.94C200.752 100.75 200.872 100.58 201.002 100.41C201.342 99.9502 201.852 99.5802 202.532 99.3002C209.582 96.4202 226.962 113.84 230.292 118.89C232.882 122.83 235.652 128.25 235.872 131.33C236.142 135.22 236.662 139.84 235.932 143.68L224.802 216.8C224.802 216.8 281.762 219.65 282.062 226.91L282.022 226.86Z" stroke="#263238" stroke-width="2.5" stroke-linecap="round" stroke-linejoin="round"/>
<path d="M241.022 170.39C244.462 167.03 244.872 161.64 242.002 157.78L201.012 105.97L186.172 100.13L188.592 114.44L189.292 115.61L203.062 136.24L202.652 133.75C197.562 116.11 207.692 116.14 210.232 119.43L214.662 126.67C216.152 129.11 217.232 131.78 217.862 134.56L219.302 158.26L230.752 169.73C231.542 171.3 237.792 173.56 241.022 170.4V170.39Z" fill="#EC644E" stroke="#263238" stroke-width="2.5" stroke-linecap="round" stroke-linejoin="round"/>
<path d="M201.832 162.08C198.242 153.96 204.182 142.98 204.182 142.98L203.052 136.23L202.642 133.74C197.552 116.1 207.682 116.13 210.222 119.42L214.652 126.66C216.142 129.1 217.222 131.77 217.852 134.55L219.292 158.25L219.412 160.27" stroke="#263238" stroke-width="2.5" stroke-linecap="round" stroke-linejoin="round"/>
<path d="M219.422 160.27L217.862 134.55C217.232 131.77 216.152 129.11 214.662 126.67L210.232 119.42C207.682 116.13 197.562 116.1 202.652 133.74L204.192 142.97C204.192 142.97 198.252 153.95 201.842 162.07" stroke="#263238" stroke-width="2.5" stroke-linecap="round" stroke-linejoin="round"/>
<path d="M202.643 120.1C205.323 131.76 215.293 128.48 215.073 128.74" stroke="#263238" stroke-width="2.5" stroke-linecap="round" stroke-linejoin="round"/>
<path d="M202.502 99.2603C202.502 102.93 212.342 110.16 216.632 105.39" stroke="#263238" stroke-width="2.5" stroke-linecap="round" stroke-linejoin="round"/>
<path d="M379.303 445.38C379.433 431.63 366.953 416.69 368.683 406.84C370.883 394.31 366.193 387.06 365.833 383.21C365.633 381.08 363.813 379.47 361.683 379.47H329.833L239.903 375.54C237.613 375.43 235.662 377.18 235.542 379.48C235.332 383.43 234.852 390.89 233.792 404.54C233.082 413.75 238.323 429.5 239.143 445.39H379.303V445.38Z" fill="#AAC7FF"/>
<path d="M249.252 445.38C248.432 429.5 242.012 413.75 242.722 404.53C243.772 390.88 244.252 383.42 244.472 379.47C244.562 377.82 245.602 376.47 247.022 375.87L239.892 375.54C237.602 375.43 235.652 377.18 235.532 379.48C235.322 383.43 234.842 390.89 233.782 404.54C233.072 413.75 238.312 429.5 239.132 445.39H249.242L249.252 445.38Z" fill="white"/>
<path d="M379.303 445.38C379.433 431.63 366.953 416.69 368.683 406.84C370.883 394.31 366.193 387.06 365.833 383.21C365.633 381.08 363.813 379.47 361.683 379.47H329.833L239.903 375.54C237.613 375.43 235.662 377.18 235.542 379.48C235.332 383.43 234.852 390.89 233.792 404.54C233.082 413.75 238.323 429.5 239.143 445.39H379.303V445.38Z" stroke="#263238" stroke-width="2.5" stroke-linecap="round" stroke-linejoin="round"/>
<path d="M397.762 284.95C397.702 285.45 397.662 285.95 397.632 286.45C397.442 289.66 396.852 292.82 395.662 295.81C392.922 302.7 388.212 314.7 386.752 319.13C386.372 319.42 386.102 319.82 385.952 320.35C380.092 341.11 368.422 357.12 374.512 366.23C381.432 376.57 375.162 381.88 374.562 382.35C374.522 382.37 374.512 382.39 374.512 382.39L360.652 381.29C358.362 381.1 356.082 381 353.802 380.95C352.432 380.91 351.052 380.93 349.692 380.95C338.342 381.13 338.822 382.98 327.972 386.47L324.702 387.51C313.682 391.07 302.272 392.97 290.852 393.19C289.352 393.23 287.852 393.23 286.342 393.18C272.882 392.93 253.602 390.32 240.902 385.27C239.302 384.64 237.982 383.45 237.112 381.97C233.582 378.06 237.582 373.04 237.582 367.96C237.582 365.32 238.082 362.64 239.132 360.11C240.662 356.39 241.942 352.62 241.992 347.97C241.992 346.3 242.062 344.97 242.122 344.01C242.682 336.54 239.352 326.59 246.242 307.88C246.322 307.65 246.372 286.42 246.232 286.44C245.662 285.43 220.642 290.68 223.042 289.76C238.632 283.78 249.132 240.37 246.232 229.46C244.212 221.88 244.712 218.74 244.712 218.69C252.092 210.62 251.332 220.97 276.782 212.03C298.342 204.46 307.062 218.27 311.012 216.41C311.352 216.25 311.542 216.41 311.542 216.41H330.092C330.092 216.41 341.062 222.05 348.452 222.52C373.732 224.16 401.282 253.77 397.772 284.95H397.762Z" fill="#EC644E"/>
<path d="M397.762 284.95C397.702 285.45 397.662 285.95 397.632 286.45C397.442 289.66 396.852 292.82 395.662 295.81C392.922 302.7 386.102 319.82 385.952 320.35C380.092 341.11 368.422 357.12 374.512 366.23C378.322 371.92 379.212 379.78 376.342 379.82C374.872 379.84 356.082 380.98 353.792 380.93C352.422 380.89 351.042 380.91 349.682 380.93C338.332 381.11 338.812 382.96 327.962 386.45L324.692 387.49C313.672 391.05 302.262 392.95 290.842 393.17C289.342 393.21 287.842 393.21 286.332 393.16C272.872 392.91 253.592 390.3 240.892 385.25C239.292 384.62 237.972 383.43 237.102 381.95C233.572 378.04 237.572 373.02 237.572 367.94C237.572 365.3 238.072 362.62 239.122 360.09C240.652 356.37 241.932 352.6 241.982 347.95C241.982 346.28 242.052 344.95 242.112 343.99C242.672 336.52 239.342 326.57 246.232 307.86C246.312 307.63 246.362 286.4 246.222 286.42C245.652 285.41 220.632 290.66 223.032 289.74C238.622 283.76 249.122 240.35 246.222 229.44C244.202 221.86 244.702 218.72 244.702 218.67C252.082 210.6 251.322 220.95 276.772 212.01C298.332 204.44 307.052 218.25 311.002 216.39C311.342 216.23 311.532 216.39 311.532 216.39H330.082C330.082 216.39 341.052 222.03 348.442 222.5C373.722 224.14 401.272 253.75 397.762 284.93V284.95Z" fill="#FFCA70"/>
<path d="M322.642 216.4H311.532C311.532 216.4 311.342 216.24 311.002 216.4C307.062 218.25 298.332 204.45 276.772 212.02C251.322 220.96 252.082 210.61 244.702 218.68C244.702 218.71 246.552 222.95 273.122 218.01C294.682 210.44 303.402 224.25 307.352 222.39C307.692 222.23 307.882 222.39 307.882 222.39H322.642V216.4Z" fill="white"/>
<path d="M397.762 284.95C397.702 285.45 397.662 285.95 397.632 286.45C397.442 289.66 396.852 292.82 395.662 295.81C392.922 302.7 386.102 319.82 385.952 320.35C380.092 341.11 368.422 357.12 374.512 366.23C378.322 371.92 379.212 379.78 376.342 379.82C374.872 379.84 356.082 380.98 353.792 380.93C352.422 380.89 351.042 380.91 349.682 380.93C338.332 381.11 338.812 382.96 327.962 386.45L324.692 387.49C313.672 391.05 302.262 392.95 290.842 393.17C289.342 393.21 287.842 393.21 286.332 393.16C272.872 392.91 253.592 390.3 240.892 385.25C239.292 384.62 237.972 383.43 237.102 381.95C233.572 378.04 237.572 373.02 237.572 367.94C237.572 365.3 238.072 362.62 239.122 360.09C240.652 356.37 241.932 352.6 241.982 347.95C241.982 346.28 242.052 344.95 242.112 343.99C242.672 336.52 239.342 326.57 246.232 307.86C246.312 307.63 246.362 286.4 246.222 286.42C245.652 285.41 220.632 290.66 223.032 289.74C238.622 283.76 249.122 240.35 246.222 229.44C244.202 221.86 244.702 218.72 244.702 218.67C252.082 210.6 251.322 220.95 276.772 212.01C298.332 204.44 307.052 218.25 311.002 216.39C311.342 216.23 311.532 216.39 311.532 216.39H330.082C330.082 216.39 341.052 222.03 348.442 222.5C373.722 224.14 401.272 253.75 397.762 284.93V284.95Z" stroke="#263238" stroke-width="2.5" stroke-linecap="round" stroke-linejoin="round"/>
<path d="M274.182 235.56C274.182 235.56 262.882 245.8 258.282 256.06C253.682 266.31 252.592 275.77 252.592 275.77C252.682 277.08 252.812 278.43 253.002 279.8C254.242 288.73 251.322 292.28 251.322 292.28" stroke="#263238" stroke-width="2.5" stroke-linecap="round" stroke-linejoin="round"/>
<path d="M223.303 308.271L214.59 235.088L200.162 236.806L208.875 309.989L223.303 308.271Z" fill="white" stroke="#263238" stroke-width="2.5" stroke-linecap="round" stroke-linejoin="round"/>
<path d="M237.782 306.555L229.068 233.372L214.64 235.09L223.354 308.273L237.782 306.555Z" fill="white" stroke="#263238" stroke-width="2.5" stroke-linecap="round" stroke-linejoin="round"/>
<path d="M252.249 304.82L243.535 231.637L229.107 233.355L237.821 306.538L252.249 304.82Z" fill="white" stroke="#263238" stroke-width="2.5" stroke-linecap="round" stroke-linejoin="round"/>
<path d="M266.708 303.105L257.994 229.922L243.566 231.64L252.28 304.823L266.708 303.105Z" fill="white" stroke="#263238" stroke-width="2.5" stroke-linecap="round" stroke-linejoin="round"/>
<path d="M315.312 264.05H201.252V361.29H315.312V264.05Z" fill="#263238" stroke="#263238" stroke-width="2.5" stroke-linecap="round" stroke-linejoin="round"/>
<path d="M306.822 226.63C306.572 232.08 311.692 234.51 318.772 232.81C319.632 232.6 320.512 232.33 321.432 232C321.702 231.89 321.982 231.8 322.272 231.68C322.912 231.42 323.572 231.13 324.192 230.83C332.122 227 338.472 219.72 338.732 213.88C338.892 210.4 336.862 208.13 333.542 207.41C333.382 207.37 333.212 207.35 333.032 207.33C332.802 207.29 332.552 207.26 332.302 207.23C329.782 206.96 326.682 207.46 323.292 208.81C314.482 212.34 307.102 220.3 306.822 226.62V226.63Z" fill="#263238" stroke="#263238" stroke-width="2.5" stroke-linecap="round" stroke-linejoin="round"/>
<path d="M352.262 206.24C351.972 206.72 351.652 207.21 351.332 207.7C351.002 208.17 350.682 208.62 350.362 209.07C350.342 209.08 350.342 209.11 350.312 209.12C350.182 209.3 350.042 209.47 349.892 209.65C349.742 209.84 349.582 210.03 349.432 210.23C349.382 210.28 349.342 210.34 349.292 210.38C348.822 210.94 348.332 211.48 347.832 212.01C347.552 212.29 347.282 212.57 347.002 212.84C346.732 213.11 346.442 213.38 346.152 213.64C344.142 215.44 341.962 216.91 339.692 218.07C338.822 218.52 337.952 218.9 337.062 219.24C336.932 219.29 336.802 219.33 336.672 219.38C335.642 219.76 334.592 220.07 333.552 220.31C330.232 221.08 326.862 221.19 323.642 220.57C323.172 220.49 322.702 220.38 322.242 220.25C321.722 220.12 321.222 219.98 320.732 219.8C320.372 219.68 320.002 219.54 319.642 219.39C319.442 219.32 319.242 219.23 319.042 219.14H319.032C319.032 219.14 318.972 219.12 318.952 219.09C318.752 219.01 318.552 218.91 318.362 218.82C318.282 218.8 318.212 218.75 318.122 218.71C317.912 218.6 317.702 218.49 317.492 218.38C317.282 218.27 317.082 218.16 316.872 218.03C316.782 217.97 316.672 217.92 316.582 217.85C316.342 217.71 316.112 217.56 315.882 217.4C315.702 217.28 315.542 217.17 315.362 217.04C315.072 216.84 314.772 216.63 314.482 216.39C314.412 216.34 314.342 216.28 314.272 216.23C313.912 215.94 313.542 215.63 313.202 215.31H313.192C311.222 213.51 309.632 211.39 308.442 209.04C308.042 208.25 307.692 207.44 307.372 206.61C307.212 206.2 307.072 205.78 306.942 205.35C306.422 203.7 306.072 201.98 305.882 200.22C305.862 200.14 305.862 200.04 305.852 199.95C305.582 197.11 305.742 194.18 306.352 191.25C306.352 191.25 306.342 191.25 306.352 191.24C306.952 188.42 307.952 185.62 309.352 182.93C310.152 181.39 311.102 179.89 312.192 178.45C312.552 177.98 312.922 177.52 313.292 177.08C313.632 176.68 313.972 176.29 314.322 175.92C314.412 175.81 314.502 175.72 314.602 175.63C314.892 175.31 315.202 175.01 315.502 174.71C315.982 174.24 316.472 173.79 316.982 173.37C317.382 173.02 317.802 172.69 318.212 172.37L318.242 172.33C318.672 172.01 319.112 171.7 319.542 171.4C320.262 170.92 321.002 170.47 321.732 170.07C321.932 169.95 322.122 169.85 322.322 169.74C322.792 169.48 323.272 169.24 323.762 169.01C324.012 168.89 324.262 168.78 324.522 168.68C324.782 168.57 325.022 168.47 325.282 168.37C325.532 168.26 325.762 168.17 326.022 168.08C326.252 168 326.502 167.92 326.752 167.83C327.102 167.7 327.442 167.58 327.782 167.49C328.062 167.41 328.342 167.34 328.632 167.27C329.432 167.07 330.252 166.91 331.062 166.8C331.402 166.74 331.752 166.69 332.102 166.66C332.922 166.58 333.742 166.54 334.562 166.54C337.012 166.54 339.432 166.92 341.732 167.7C341.732 167.7 341.742 167.71 341.752 167.71C342.332 167.91 342.902 168.13 343.462 168.38C344.012 168.63 344.582 168.9 345.122 169.19C345.622 169.46 346.122 169.75 346.612 170.07C346.672 170.12 346.732 170.16 346.792 170.2C347.242 170.49 347.662 170.81 348.082 171.14C348.102 171.15 348.122 171.16 348.142 171.19C348.162 171.2 348.172 171.23 348.202 171.24H348.212C348.212 171.24 348.252 171.26 348.262 171.28C348.312 171.32 348.352 171.36 348.402 171.41C348.422 171.42 348.442 171.43 348.452 171.45C349.102 171.97 349.692 172.52 350.262 173.1C352.192 175.1 353.692 177.42 354.772 179.95C358.132 187.83 357.352 197.78 352.242 206.22L352.262 206.24Z" fill="#FCD8C3" stroke="#263238" stroke-width="2.5" stroke-linecap="round" stroke-linejoin="round"/>
<path d="M348.582 171.55C343.852 169.64 338.542 169.43 333.452 170.87C333.112 170.98 332.762 171.08 332.422 171.22C331.932 171.36 331.432 171.55 330.942 171.74C328.752 172.59 326.622 173.74 324.602 175.17C322.122 176.95 319.822 179.18 317.822 181.83C310.262 191.85 309.402 204.79 314.892 213.85C315.432 214.74 316.032 215.6 316.712 216.41C316.992 216.77 317.312 217.14 317.642 217.48C318.262 218.16 318.942 218.79 319.672 219.39C319.472 219.32 319.272 219.23 319.072 219.14C319.032 219.13 319.002 219.12 318.982 219.09C318.782 219.01 318.582 218.91 318.392 218.82C318.312 218.8 318.242 218.75 318.152 218.71C317.942 218.6 317.732 218.49 317.522 218.38C317.312 218.27 317.112 218.16 316.902 218.03C316.812 217.97 316.702 217.92 316.612 217.85C316.532 217.8 316.452 217.76 316.372 217.71C316.212 217.62 316.052 217.51 315.902 217.4C315.712 217.29 315.542 217.17 315.362 217.04H315.352C315.242 216.96 315.142 216.89 315.052 216.82C315.022 216.8 314.972 216.76 314.932 216.74C314.782 216.62 314.642 216.52 314.502 216.4C314.432 216.35 314.372 216.29 314.302 216.25C313.922 215.96 313.572 215.64 313.222 215.32C311.252 213.52 309.662 211.4 308.472 209.05C308.072 208.26 307.712 207.45 307.402 206.62C307.242 206.21 307.102 205.79 306.972 205.36C306.442 203.72 306.092 201.99 305.912 200.23C305.892 200.15 305.892 200.05 305.882 199.96C305.812 199.25 305.772 198.54 305.762 197.82C305.722 195.66 305.932 193.46 306.392 191.27C306.392 191.27 306.382 191.27 306.392 191.26C306.972 188.44 307.962 185.64 309.392 182.95C310.192 181.41 311.142 179.91 312.232 178.47C312.592 178 312.962 177.54 313.332 177.1C313.672 176.7 314.012 176.31 314.362 175.94C314.452 175.83 314.542 175.74 314.642 175.65C314.932 175.33 315.242 175.03 315.542 174.73C316.022 174.26 316.512 173.81 317.022 173.39C317.422 173.04 317.842 172.71 318.252 172.39L318.282 172.35C318.712 172.03 319.152 171.72 319.582 171.42C320.302 170.93 321.022 170.48 321.762 170.07C322.432 169.69 323.112 169.34 323.802 169.04C324.052 168.92 324.302 168.81 324.562 168.71C324.822 168.59 325.062 168.49 325.322 168.39C325.572 168.3 325.812 168.2 326.062 168.11C326.292 168.03 326.542 167.95 326.792 167.86C327.142 167.73 327.482 167.61 327.822 167.52C328.102 167.44 328.382 167.37 328.672 167.3C329.482 167.1 330.292 166.95 331.102 166.83C331.442 166.77 331.792 166.72 332.142 166.69C335.412 166.36 338.692 166.69 341.762 167.72C341.762 167.72 341.772 167.73 341.782 167.73C342.362 167.93 342.932 168.15 343.492 168.4C344.042 168.65 344.612 168.92 345.152 169.21C346.172 169.77 347.172 170.42 348.112 171.16C348.112 171.16 348.132 171.17 348.132 171.2C348.132 171.2 348.145 171.203 348.172 171.21C348.172 171.21 348.202 171.25 348.232 171.26C348.302 171.32 348.362 171.38 348.432 171.42C348.452 171.43 348.472 171.44 348.482 171.46C348.502 171.47 348.522 171.48 348.532 171.51L348.582 171.56V171.55Z" fill="white"/>
<path d="M352.262 206.24C351.972 206.72 351.652 207.21 351.332 207.7C351.012 208.16 350.682 208.62 350.342 209.06C350.192 209.26 350.052 209.46 349.882 209.65C349.732 209.84 349.572 210.03 349.422 210.23C349.372 210.28 349.332 210.34 349.282 210.38C348.812 210.94 348.322 211.48 347.822 212.01C347.542 212.29 347.272 212.57 346.992 212.84C346.722 213.11 346.432 213.38 346.142 213.64C344.132 215.44 341.952 216.91 339.682 218.07C338.822 218.5 337.942 218.89 337.062 219.22C336.922 219.28 336.792 219.33 336.652 219.37C335.612 219.76 334.562 220.07 333.492 220.31C330.192 221.08 326.832 221.18 323.632 220.57C323.162 220.49 322.692 220.38 322.232 220.25C321.712 220.12 321.212 219.98 320.722 219.8C320.362 219.68 319.992 219.54 319.632 219.39C319.432 219.32 319.232 219.23 319.032 219.14H319.022C318.802 219.05 318.572 218.94 318.352 218.82C318.272 218.8 318.202 218.75 318.112 218.71C317.902 218.6 317.692 218.49 317.482 218.38C317.272 218.27 317.072 218.16 316.862 218.03C316.772 217.97 316.662 217.92 316.572 217.85C316.492 217.8 316.412 217.76 316.332 217.71C316.172 217.62 316.012 217.51 315.862 217.4C315.672 217.29 315.502 217.17 315.322 217.04C315.212 216.97 315.112 216.9 315.002 216.82C314.972 216.8 314.922 216.76 314.882 216.74C314.742 216.63 314.602 216.53 314.462 216.4C314.462 216.4 314.452 216.41 314.452 216.4C314.382 216.35 314.322 216.29 314.252 216.25C313.872 215.96 313.522 215.64 313.172 215.32C311.202 213.52 309.612 211.4 308.422 209.05C308.022 208.26 307.662 207.45 307.352 206.62C307.192 206.21 307.052 205.79 306.922 205.36C306.392 203.72 306.042 201.99 305.862 200.23C305.842 200.15 305.842 200.05 305.832 199.96C305.762 199.25 305.722 198.54 305.712 197.82C305.672 195.66 305.882 193.46 306.342 191.27C306.342 191.27 306.332 191.27 306.342 191.26C306.922 188.44 307.912 185.64 309.342 182.95C310.142 181.41 311.092 179.91 312.182 178.47C312.542 178 312.912 177.54 313.282 177.1C313.622 176.7 313.962 176.31 314.312 175.94C314.402 175.83 314.492 175.74 314.592 175.65C314.882 175.33 315.192 175.03 315.492 174.73C315.972 174.26 316.462 173.81 316.972 173.39C317.372 173.04 317.792 172.71 318.202 172.39L318.232 172.35C318.662 172.03 319.102 171.72 319.532 171.42C320.252 170.93 320.972 170.48 321.712 170.07C322.382 169.69 323.062 169.34 323.752 169.04C324.002 168.92 324.252 168.81 324.512 168.71C324.772 168.59 325.012 168.49 325.272 168.39C325.522 168.3 325.762 168.2 326.012 168.11C326.242 168.03 326.492 167.95 326.742 167.86C327.092 167.73 327.432 167.61 327.772 167.52C328.052 167.44 328.332 167.37 328.622 167.3C329.432 167.1 330.242 166.95 331.052 166.83C331.392 166.77 331.742 166.72 332.092 166.69C335.362 166.36 338.642 166.69 341.712 167.72C341.712 167.72 341.722 167.73 341.732 167.73C342.312 167.93 342.882 168.15 343.442 168.4C343.992 168.65 344.562 168.92 345.102 169.21C346.122 169.77 347.122 170.42 348.062 171.16C348.062 171.16 348.082 171.17 348.082 171.2C348.082 171.2 348.095 171.203 348.122 171.21C348.122 171.21 348.152 171.25 348.182 171.26C348.252 171.32 348.312 171.38 348.382 171.42C348.402 171.43 348.422 171.44 348.432 171.46C348.452 171.47 348.472 171.48 348.482 171.51L348.532 171.56C349.142 172.04 349.702 172.57 350.242 173.12C352.172 175.12 353.672 177.44 354.752 179.97C358.112 187.85 357.332 197.8 352.222 206.24H352.262Z" stroke="#263238" stroke-width="2.5" stroke-linecap="round" stroke-linejoin="round"/>
<path d="M328.862 340.78C328.862 340.78 339.022 356.81 346.582 354.82C346.332 343.18 345.142 340.12 345.142 340.12L328.862 340.78Z" fill="#263238" stroke="#263238" stroke-width="2.5" stroke-linecap="round" stroke-linejoin="round"/>
<path d="M315.313 306.78C315.313 306.78 296.433 297.97 291.953 304.36C288.313 309.55 303.303 317.79 303.303 317.79L315.313 306.78Z" fill="#263238" stroke="#263238" stroke-width="2.5" stroke-linecap="round" stroke-linejoin="round"/>
<path d="M239.652 324.37C243.142 319.31 249.672 303.84 252.792 286.39" stroke="#263238" stroke-width="2.5" stroke-linecap="round" stroke-linejoin="round"/>
<path d="M338.362 224.81C342.902 223.33 347.742 223.05 352.492 222.95" stroke="#263238" stroke-width="2.5" stroke-linecap="round" stroke-linejoin="round"/>
<path d="M251.332 291.23C248.722 287.72 248.192 285.74 246.752 281.63" stroke="#263238" stroke-width="2.5" stroke-linecap="round" stroke-linejoin="round"/>
<path d="M299.222 232.7C301.572 238.08 307.262 240.87 312.982 240.32" stroke="#263238" stroke-width="2.5" stroke-linecap="round" stroke-linejoin="round"/>
<path d="M371.802 322.17C371.682 321.88 347.592 358.94 346.152 354.45C346.152 354.45 348.572 346.52 341.092 328.23C335.492 314.56 325.622 310.12 311.642 305.35H311.602C300.992 302.28 291.952 304.37 291.952 304.37C291.922 304.28 321.422 287.96 325.352 277.38C328.402 269.16 330.902 263.83 333.352 259.7" fill="#FFCA70"/>
<path d="M371.802 322.17C371.682 321.88 347.592 358.94 346.152 354.45C346.152 354.45 348.572 346.52 341.092 328.23C335.492 314.56 325.622 310.12 311.642 305.35H311.602C300.992 302.28 291.952 304.37 291.952 304.37C291.922 304.28 321.422 287.96 325.352 277.38C328.402 269.16 330.902 263.83 333.352 259.7" stroke="#263238" stroke-width="2.5" stroke-linecap="round" stroke-linejoin="round"/>
<path d="M325.352 277.37C328.402 269.15 330.892 263.82 333.352 259.69C330.892 263.82 331.142 273.41 328.092 281.63C325.502 288.6 312.982 298.21 304.752 303.97C297.372 303.11 291.952 304.36 291.952 304.36C291.952 304.26 321.422 287.95 325.352 277.37Z" fill="white"/>
<path d="M371.802 322.17C371.682 321.88 348.082 357.7 346.642 353.21C346.642 353.21 348.752 347.08 341.092 328.23C335.532 314.55 325.622 310.12 311.642 305.35H311.602C300.992 302.28 291.952 304.37 291.952 304.37C291.922 304.28 321.422 287.96 325.352 277.38C328.402 269.16 330.902 263.83 333.352 259.7" stroke="#263238" stroke-width="2.5" stroke-linecap="round" stroke-linejoin="round"/>
<path d="M367.912 298.18C361.492 299.22 354.752 298.34 348.482 296.81" stroke="#263238" stroke-width="2.5" stroke-linecap="round" stroke-linejoin="round"/>
<path d="M395.972 235.23C384.572 242.55 370.092 240.35 363.642 230.3C362.802 228.98 362.132 227.59 361.642 226.14C360.722 223.46 358.762 221.35 356.292 220.15C354.962 219.48 353.492 219.1 351.962 219.03C350.882 218.97 350.582 218.94 348.882 218.7C347.392 218.48 345.922 217.95 344.692 217.06C338.452 212.47 337.632 204.78 341.082 199.36C342.682 196.82 342.572 193.49 340.892 190.99C339.402 188.77 337.582 187.31 337.412 187.23C332.902 184.89 328.282 180.88 325.162 175.8C324.322 174.47 323.612 173.06 323.022 171.6C322.472 170.92 321.982 170.19 321.602 169.41C321.572 169.41 321.572 169.4 321.582 169.38C322.422 168.91 323.282 168.46 324.152 168.08C324.462 167.93 324.792 167.78 325.112 167.67C325.442 167.52 325.752 167.39 326.072 167.27C326.382 167.15 326.692 167.03 327.002 166.91C327.302 166.81 327.612 166.7 327.922 166.6C328.362 166.44 328.792 166.29 329.222 166.17C329.582 166.07 329.932 165.98 330.292 165.89C331.302 165.64 332.332 165.43 333.352 165.3C333.782 165.23 334.222 165.17 334.672 165.12C335.702 165.02 336.742 164.96 337.772 164.97C340.862 164.97 343.912 165.45 346.802 166.43C346.802 166.43 346.812 166.44 346.832 166.44C347.562 166.69 348.282 166.97 348.992 167.28C349.692 167.59 350.402 167.93 351.082 168.3C351.722 168.64 352.342 169.01 352.962 169.41C353.032 169.47 353.112 169.53 353.182 169.57C353.742 169.94 354.272 170.34 354.812 170.75V170.78C354.812 170.78 354.832 170.78 354.842 170.79C354.842 170.79 354.855 170.794 354.882 170.8C354.882 170.8 354.922 170.84 354.952 170.86C355.042 170.93 355.112 171.01 355.202 171.07C355.242 171.11 355.292 171.14 355.322 171.17L355.382 171.23C357.782 173.37 360.412 177.16 362.852 181.26C362.972 181.45 363.092 181.64 363.222 181.84C368.992 191.11 373.702 191.39 384.652 191.95C390.892 192.29 400.802 195.41 404.932 203.77C410.212 214.47 407.372 227.89 395.972 235.22V235.23Z" fill="#263238" stroke="#263238" stroke-width="2.5" stroke-linecap="round" stroke-linejoin="round"/>
<path d="M368.312 389.85C368.312 389.85 379.502 379.2 375.792 379.79C367.152 381.16 365.762 382.55 365.762 382.55L368.312 389.85Z" fill="#263238" stroke="#263238" stroke-width="2.5" stroke-linecap="round" stroke-linejoin="round"/>
<path d="M294.192 374.7C288.902 376 278.352 376.19 264.552 373.71" stroke="#263238" stroke-width="2.5" stroke-linecap="round" stroke-linejoin="round"/>
<path d="M345.433 396.52C345.433 399.57 345.903 402.63 346.893 405.52" stroke="#263238" stroke-width="2.5" stroke-linecap="round" stroke-linejoin="round"/>
<path d="M244.432 138.8C245.412 133 243.862 126.3 241.362 120.79" stroke="#263238" stroke-width="2.5" stroke-linecap="round" stroke-linejoin="round"/>
<path d="M250.633 132.82C250.633 128.19 249.822 125.41 248.812 123.42" stroke="#263238" stroke-width="2.5" stroke-linecap="round" stroke-linejoin="round"/>
<path d="M183.482 336.5C183.482 336.5 172.412 345.01 199.392 361.65C204.902 365.06 233.892 367.87 262.502 367.08C295.052 366.2 327.092 360.63 323.442 345.94L318.712 331.93L311.612 306.49C304.892 307.66 296.832 311.89 288.052 315.98C279.632 319.91 270.542 323.7 261.332 324.56C261.332 324.56 260.562 323.05 259.462 320.9L255.582 320.84L235.712 320.56C235.712 320.56 232.272 314.94 224.362 309.7C220.522 307.16 215.972 307.48 215.512 310.81C214.252 320.04 224.682 324.77 216.022 323.89C213.382 323.62 210.842 324.48 204.532 321.14C185.472 311.03 186.182 323.19 186.182 323.19C186.182 323.19 179.072 323.22 180.742 329.8C182.232 335.64 183.492 336.51 183.492 336.51L183.482 336.5Z" fill="#FCD8C3" stroke="#263238" stroke-width="2.5" stroke-linecap="round" stroke-linejoin="round"/>
<path d="M255.563 320.84L235.693 320.56C235.693 320.56 232.253 314.94 224.343 309.7C220.503 307.16 215.953 307.48 215.493 310.81C214.233 320.04 224.663 324.77 216.003 323.89C213.363 323.62 210.823 324.48 204.513 321.14C185.453 311.03 186.163 323.19 186.163 323.19C186.163 323.19 179.053 323.22 180.723 329.8C182.213 335.64 183.473 336.51 183.473 336.51C183.473 336.51 172.403 345.02 199.383 361.66C204.893 365.07 233.883 367.88 262.493 367.09C295.043 366.21 349.803 358.99 346.153 344.31L345.143 341.3C342.013 329.09 333.103 312.6 318.283 308.6L311.603 306.51C304.883 307.68 296.823 311.91 288.043 316" fill="#FCD8C3"/>
<path d="M180.722 329.79C179.042 323.21 186.162 323.18 186.162 323.18C186.162 323.18 185.452 311.02 204.512 321.13C210.822 324.47 213.362 323.62 216.002 323.88C217.942 324.08 218.922 323.99 219.292 323.63C221.382 328.07 224.592 330.17 218.562 329.56C215.922 329.29 213.382 330.15 207.072 326.81C188.012 316.7 188.722 328.86 188.722 328.86C188.722 328.86 181.612 328.89 183.282 335.47C184.772 341.31 186.032 342.18 186.032 342.18C186.032 342.18 183.212 344.36 183.892 348.66C178.142 340.59 183.462 336.5 183.462 336.5C183.462 336.5 182.192 335.63 180.712 329.79H180.722Z" fill="white"/>
<path d="M183.482 336.5C183.482 336.5 172.412 345.01 199.392 361.65C204.902 365.06 233.892 367.87 262.502 367.08C295.052 366.2 349.812 358.98 346.162 344.3C346.162 344.3 344.002 328.41 331.282 315.09C327.302 310.92 317.062 308.38 311.612 306.5C304.892 307.67 296.832 311.9 288.052 315.99C279.632 319.92 255.582 320.84 255.582 320.84L235.712 320.56C235.712 320.56 232.272 314.94 224.362 309.7C220.522 307.16 215.972 307.48 215.512 310.81C214.252 320.04 224.682 324.77 216.022 323.89C213.382 323.62 210.842 324.48 204.532 321.14C185.472 311.03 186.182 323.19 186.182 323.19C186.182 323.19 179.072 323.22 180.742 329.8C182.232 335.64 183.492 336.51 183.492 336.51L183.482 336.5Z" stroke="#263238" stroke-width="2.5" stroke-linecap="round" stroke-linejoin="round"/>
<path d="M185.553 322.41C185.553 322.41 188.863 328.75 204.313 336.39Z" fill="white"/>
<path d="M185.553 322.41C185.553 322.41 188.863 328.75 204.313 336.39" stroke="#263238" stroke-width="2.5" stroke-linecap="round" stroke-linejoin="round"/>
<path d="M182.053 333.26C182.053 333.26 186.243 343.53 203.203 350.64" stroke="#263238" stroke-width="2.5" stroke-linecap="round" stroke-linejoin="round"/>
<path d="M194.003 329.96C194.003 329.96 195.793 327.74 195.613 324.66C195.353 320.03 188.343 318.97 188.343 318.97" stroke="#263238" stroke-width="2.5" stroke-linecap="round" stroke-linejoin="round"/>
<path d="M229.163 313.35C229.163 313.35 228.303 315.53 222.993 315.01C217.683 314.49 216.923 308.59 216.923 308.59" stroke="#263238" stroke-width="2.5" stroke-linecap="round" stroke-linejoin="round"/>
<path d="M274.183 406.7C275.753 411.57 287.443 412.14 291.383 419.29C295.323 426.44 297.953 444.21 297.953 444.21" stroke="#263238" stroke-width="2.5" stroke-linecap="round" stroke-linejoin="round"/>
<path d="M372.862 358.57L368.172 368.63" stroke="#263238" stroke-width="2.5" stroke-linecap="round" stroke-linejoin="round"/>
<path d="M199.882 106.5C198.042 111.02 194.012 114.36 189.162 115.13L188.572 114.44L186.012 105.98L183.592 98L191.112 101.67L199.032 105.53L199.862 106.5H199.882Z" fill="white" stroke="#263238" stroke-width="2.5" stroke-linecap="round" stroke-linejoin="round"/>
<path d="M191.133 101.67C190.233 103.62 188.363 105.18 186.023 105.98L183.603 98L191.123 101.67H191.133Z" fill="#EC644E" stroke="#263238" stroke-width="2.5" stroke-linecap="round" stroke-linejoin="round"/>
</svg>
