<svg width="333" height="193" viewBox="0 0 333 193" fill="none" xmlns="http://www.w3.org/2000/svg">
<path d="M32.16 15.25H260.74C265.661 15.25 269.65 19.2391 269.65 24.16V167.85C269.65 172.771 265.661 176.76 260.74 176.76H32.16C27.2391 176.76 23.25 172.771 23.25 167.85V24.16C23.25 19.2391 27.2391 15.25 32.16 15.25Z" fill="#FFFCF7" stroke="black" stroke-width="2.5"/>
<path d="M32.16 15.25H260.74C265.66 15.25 269.65 19.2404 269.65 24.16V32.89H23.25V24.16C23.25 19.2404 27.2404 15.25 32.16 15.25Z" fill="#EC644E" stroke="black" stroke-width="2.5"/>
<path d="M229.61 27.99C231.598 27.99 233.21 26.3783 233.21 24.39C233.21 22.4018 231.598 20.79 229.61 20.79C227.622 20.79 226.01 22.4018 226.01 24.39C226.01 26.3783 227.622 27.99 229.61 27.99Z" stroke="black" stroke-width="1.5" stroke-linejoin="round"/>
<path d="M243.06 27.99C245.048 27.99 246.66 26.3783 246.66 24.39C246.66 22.4018 245.048 20.79 243.06 20.79C241.072 20.79 239.46 22.4018 239.46 24.39C239.46 26.3783 241.072 27.99 243.06 27.99Z" stroke="black" stroke-width="1.5" stroke-linejoin="round"/>
<path d="M256.51 27.99C258.498 27.99 260.11 26.3783 260.11 24.39C260.11 22.4018 258.498 20.79 256.51 20.79C254.522 20.79 252.91 22.4018 252.91 24.39C252.91 26.3783 254.522 27.99 256.51 27.99Z" stroke="black" stroke-width="1.5" stroke-linejoin="round"/>
<path d="M115.659 61.318L115.661 61.3194C117.607 62.9349 120.211 64.8195 123.06 65.1936V65.27H124.06H200.92C203.127 65.27 204.91 67.0523 204.91 69.26V143.29C204.91 145.498 203.127 147.28 200.92 147.28H86.7097C84.502 147.28 82.7197 145.498 82.7197 143.29V59.96C82.7197 58.454 83.9403 57.24 85.4397 57.24H108.06C109.81 57.24 111.536 57.8774 113.009 59.1075L113.009 59.108L115.659 61.318Z" fill="#FFCA70" stroke="black" stroke-width="2"/>
<path d="M297.8 185.95C297.8 189.84 288.75 192.98 277.58 192.98C266.41 192.98 257.36 189.83 257.36 185.95C257.36 182.07 266.41 178.91 277.58 178.91C288.75 178.91 297.8 182.06 297.8 185.95Z" fill="#DFDFEB"/>
<path d="M277.13 81.31C277.13 81.31 271.01 81.88 273.1 66.05C275.08 51.01 282.66 40.05 283.24 40C283.24 40 294.14 55.64 287.31 69.21C280.48 82.77 277.14 81.31 277.14 81.31H277.13Z" fill="#B4E072" stroke="black" stroke-width="2.5"/>
<path d="M327.18 58.4199C327.18 58.4199 313.17 75.2099 279.08 87.0299C279.08 87.0299 278.87 82.5499 290.66 71.7199C302.45 60.8899 328.81 53.2699 327.18 58.4099V58.4199Z" fill="#B4E072" stroke="black" stroke-width="2.5"/>
<path d="M279.08 87.03C279.08 87.03 276.98 89.7 276.72 95.45" stroke="black" stroke-width="2" stroke-miterlimit="10" stroke-linecap="round"/>
<path d="M227.072 96.3642C227.072 96.3642 241.032 110.235 275 120C275 120 275.209 116.299 263.461 107.352C251.713 98.4048 225.448 92.1096 227.072 96.356V96.3642Z" fill="#B4E072" stroke="black" stroke-width="2.5"/>
<path d="M245.59 125.28C245.59 125.28 254.91 132.9 275.12 126.8C275.12 126.8 274.86 122.9 267.3 119.29C259.74 115.68 244.24 121.69 245.59 125.28Z" fill="#B4E072" stroke="black" stroke-width="2.5"/>
<path d="M323.58 85.2301C323.58 85.2301 313.79 111.57 279.7 123.4C279.7 123.4 278.53 108.53 290.31 97.7001C302.1 86.8701 325.2 80.0901 323.57 85.2301H323.58Z" fill="#B4E072" stroke="black" stroke-width="2.5"/>
<path d="M279.7 123.4C279.7 123.4 277.52 127.35 277.26 133.09" stroke="black" stroke-width="2" stroke-miterlimit="10" stroke-linecap="round"/>
<path d="M275 95.9999C275 95.9999 268.29 95.9499 257 94.4999C245.7 93.0499 229 82.4999 226 80.1501C226 80.1501 249.5 72.0002 273.5 92.5899L275 95.9999Z" fill="#B4E072" stroke="black" stroke-width="2.5"/>
<path d="M279.16 153.35C276.36 129.97 274.22 110.87 277.5 80.4998" stroke="black" stroke-width="2.5" stroke-miterlimit="10" stroke-linecap="round"/>
<path d="M273 92C278.81 95.5 276.01 99.4699 275.64 104.61" stroke="black" stroke-width="2" stroke-miterlimit="10" stroke-linecap="round"/>
<path d="M263.27 184.16V184.059L263.254 183.959L256.91 144.93H298.471L292.127 183.959L292.11 184.059V184.16C292.11 184.165 292.11 184.177 292.101 184.201C292.092 184.228 292.071 184.274 292.025 184.338C291.928 184.474 291.745 184.658 291.428 184.873C290.788 185.306 289.781 185.745 288.425 186.133C285.729 186.906 281.933 187.4 277.69 187.4C273.448 187.4 269.652 186.906 266.956 186.133C265.6 185.745 264.593 185.306 263.953 184.873C263.636 184.658 263.453 184.474 263.356 184.338C263.31 184.274 263.289 184.228 263.28 184.201C263.271 184.177 263.27 184.165 263.27 184.16Z" fill="#FFCA70" stroke="black" stroke-width="2.5"/>
<path d="M277.69 148.17C289.973 148.17 299.93 146.16 299.93 143.68C299.93 141.2 289.973 139.19 277.69 139.19C265.407 139.19 255.45 141.2 255.45 143.68C255.45 146.16 265.407 148.17 277.69 148.17Z" fill="black" stroke="black" stroke-width="2"/>
<path d="M116.988 102H114.468L108.762 93.378V102H106.242V89.418H108.762L114.468 98.058V89.418H116.988V102ZM123.906 102.162C122.946 102.162 122.082 101.952 121.314 101.532C120.546 101.1 119.94 100.494 119.496 99.714C119.064 98.934 118.848 98.034 118.848 97.014C118.848 95.994 119.07 95.094 119.514 94.314C119.97 93.534 120.588 92.934 121.368 92.514C122.148 92.082 123.018 91.866 123.978 91.866C124.938 91.866 125.808 92.082 126.588 92.514C127.368 92.934 127.98 93.534 128.424 94.314C128.88 95.094 129.108 95.994 129.108 97.014C129.108 98.034 128.874 98.934 128.406 99.714C127.95 100.494 127.326 101.1 126.534 101.532C125.754 101.952 124.878 102.162 123.906 102.162ZM123.906 99.966C124.362 99.966 124.788 99.858 125.184 99.642C125.592 99.414 125.916 99.078 126.156 98.634C126.396 98.19 126.516 97.65 126.516 97.014C126.516 96.066 126.264 95.34 125.76 94.836C125.268 94.32 124.662 94.062 123.942 94.062C123.222 94.062 122.616 94.32 122.124 94.836C121.644 95.34 121.404 96.066 121.404 97.014C121.404 97.962 121.638 98.694 122.106 99.21C122.586 99.714 123.186 99.966 123.906 99.966ZM141.726 102L138.954 97.104H137.766V102H135.246V89.436H139.962C140.934 89.436 141.762 89.61 142.446 89.958C143.13 90.294 143.64 90.756 143.976 91.344C144.324 91.92 144.498 92.568 144.498 93.288C144.498 94.116 144.258 94.866 143.778 95.538C143.298 96.198 142.584 96.654 141.636 96.906L144.642 102H141.726ZM137.766 95.214H139.872C140.556 95.214 141.066 95.052 141.402 94.728C141.738 94.392 141.906 93.93 141.906 93.342C141.906 92.766 141.738 92.322 141.402 92.01C141.066 91.686 140.556 91.524 139.872 91.524H137.766V95.214ZM156.047 96.798C156.047 97.158 156.023 97.482 155.975 97.77H148.685C148.745 98.49 148.997 99.054 149.441 99.462C149.885 99.87 150.431 100.074 151.079 100.074C152.015 100.074 152.681 99.672 153.077 98.868H155.795C155.507 99.828 154.955 100.62 154.139 101.244C153.323 101.856 152.321 102.162 151.133 102.162C150.173 102.162 149.309 101.952 148.541 101.532C147.785 101.1 147.191 100.494 146.759 99.714C146.339 98.934 146.129 98.034 146.129 97.014C146.129 95.982 146.339 95.076 146.759 94.296C147.179 93.516 147.767 92.916 148.523 92.496C149.279 92.076 150.149 91.866 151.133 91.866C152.081 91.866 152.927 92.07 153.671 92.478C154.427 92.886 155.009 93.468 155.417 94.224C155.837 94.968 156.047 95.826 156.047 96.798ZM153.437 96.078C153.425 95.43 153.191 94.914 152.735 94.53C152.279 94.134 151.721 93.936 151.061 93.936C150.437 93.936 149.909 94.128 149.477 94.512C149.057 94.884 148.799 95.406 148.703 96.078H153.437ZM161.703 102.162C160.887 102.162 160.155 102.018 159.507 101.73C158.859 101.43 158.343 101.028 157.959 100.524C157.587 100.02 157.383 99.462 157.347 98.85H159.885C159.933 99.234 160.119 99.552 160.443 99.804C160.779 100.056 161.193 100.182 161.685 100.182C162.165 100.182 162.537 100.086 162.801 99.894C163.077 99.702 163.215 99.456 163.215 99.156C163.215 98.832 163.047 98.592 162.711 98.436C162.387 98.268 161.865 98.088 161.145 97.896C160.401 97.716 159.789 97.53 159.309 97.338C158.841 97.146 158.433 96.852 158.085 96.456C157.749 96.06 157.581 95.526 157.581 94.854C157.581 94.302 157.737 93.798 158.049 93.342C158.373 92.886 158.829 92.526 159.417 92.262C160.017 91.998 160.719 91.866 161.523 91.866C162.711 91.866 163.659 92.166 164.367 92.766C165.075 93.354 165.465 94.152 165.537 95.16H163.125C163.089 94.764 162.921 94.452 162.621 94.224C162.333 93.984 161.943 93.864 161.451 93.864C160.995 93.864 160.641 93.948 160.389 94.116C160.149 94.284 160.029 94.518 160.029 94.818C160.029 95.154 160.197 95.412 160.533 95.592C160.869 95.76 161.391 95.934 162.099 96.114C162.819 96.294 163.413 96.48 163.881 96.672C164.349 96.864 164.751 97.164 165.087 97.572C165.435 97.968 165.615 98.496 165.627 99.156C165.627 99.732 165.465 100.248 165.141 100.704C164.829 101.16 164.373 101.52 163.773 101.784C163.185 102.036 162.495 102.162 161.703 102.162ZM177.109 92.028V102H174.571V100.74C174.247 101.172 173.821 101.514 173.293 101.766C172.777 102.006 172.213 102.126 171.601 102.126C170.821 102.126 170.131 101.964 169.531 101.64C168.931 101.304 168.457 100.818 168.109 100.182C167.773 99.534 167.605 98.766 167.605 97.878V92.028H170.125V97.518C170.125 98.31 170.323 98.922 170.719 99.354C171.115 99.774 171.655 99.984 172.339 99.984C173.035 99.984 173.581 99.774 173.977 99.354C174.373 98.922 174.571 98.31 174.571 97.518V92.028H177.109ZM182.116 88.68V102H179.596V88.68H182.116ZM187.539 94.098V98.922C187.539 99.258 187.617 99.504 187.773 99.66C187.941 99.804 188.217 99.876 188.601 99.876H189.771V102H188.187C186.063 102 185.001 100.968 185.001 98.904V94.098H183.813V92.028H185.001V89.562H187.539V92.028H189.771V94.098H187.539ZM114 116.436V118.47H108.762V121.692H112.776V123.69H108.762V129H106.242V116.436H114ZM120.215 129.162C119.255 129.162 118.391 128.952 117.623 128.532C116.855 128.1 116.249 127.494 115.805 126.714C115.373 125.934 115.157 125.034 115.157 124.014C115.157 122.994 115.379 122.094 115.823 121.314C116.279 120.534 116.897 119.934 117.677 119.514C118.457 119.082 119.327 118.866 120.287 118.866C121.247 118.866 122.117 119.082 122.897 119.514C123.677 119.934 124.289 120.534 124.733 121.314C125.189 122.094 125.417 122.994 125.417 124.014C125.417 125.034 125.183 125.934 124.715 126.714C124.259 127.494 123.635 128.1 122.843 128.532C122.063 128.952 121.187 129.162 120.215 129.162ZM120.215 126.966C120.671 126.966 121.097 126.858 121.493 126.642C121.901 126.414 122.225 126.078 122.465 125.634C122.705 125.19 122.825 124.65 122.825 124.014C122.825 123.066 122.573 122.34 122.069 121.836C121.577 121.32 120.971 121.062 120.251 121.062C119.531 121.062 118.925 121.32 118.433 121.836C117.953 122.34 117.713 123.066 117.713 124.014C117.713 124.962 117.947 125.694 118.415 126.21C118.895 126.714 119.495 126.966 120.215 126.966ZM136.679 119.028V129H134.141V127.74C133.817 128.172 133.391 128.514 132.863 128.766C132.347 129.006 131.783 129.126 131.171 129.126C130.391 129.126 129.701 128.964 129.101 128.64C128.501 128.304 128.027 127.818 127.679 127.182C127.343 126.534 127.175 125.766 127.175 124.878V119.028H129.695V124.518C129.695 125.31 129.893 125.922 130.289 126.354C130.685 126.774 131.225 126.984 131.909 126.984C132.605 126.984 133.151 126.774 133.547 126.354C133.943 125.922 134.141 125.31 134.141 124.518V119.028H136.679ZM144.692 118.884C145.88 118.884 146.84 119.262 147.572 120.018C148.304 120.762 148.67 121.806 148.67 123.15V129H146.15V123.492C146.15 122.7 145.952 122.094 145.556 121.674C145.16 121.242 144.62 121.026 143.936 121.026C143.24 121.026 142.688 121.242 142.28 121.674C141.884 122.094 141.686 122.7 141.686 123.492V129H139.166V119.028H141.686V120.27C142.022 119.838 142.448 119.502 142.964 119.262C143.492 119.01 144.068 118.884 144.692 118.884ZM150.418 123.978C150.418 122.97 150.616 122.076 151.012 121.296C151.42 120.516 151.972 119.916 152.668 119.496C153.364 119.076 154.138 118.866 154.99 118.866C155.638 118.866 156.256 119.01 156.844 119.298C157.432 119.574 157.9 119.946 158.248 120.414V115.68H160.804V129H158.248V127.524C157.936 128.016 157.498 128.412 156.934 128.712C156.37 129.012 155.716 129.162 154.972 129.162C154.132 129.162 153.364 128.946 152.668 128.514C151.972 128.082 151.42 127.476 151.012 126.696C150.616 125.904 150.418 124.998 150.418 123.978ZM158.266 124.014C158.266 123.402 158.146 122.88 157.906 122.448C157.666 122.004 157.342 121.668 156.934 121.44C156.526 121.2 156.088 121.08 155.62 121.08C155.152 121.08 154.72 121.194 154.324 121.422C153.928 121.65 153.604 121.986 153.352 122.43C153.112 122.862 152.992 123.378 152.992 123.978C152.992 124.578 153.112 125.106 153.352 125.562C153.604 126.006 153.928 126.348 154.324 126.588C154.732 126.828 155.164 126.948 155.62 126.948C156.088 126.948 156.526 126.834 156.934 126.606C157.342 126.366 157.666 126.03 157.906 125.598C158.146 125.154 158.266 124.626 158.266 124.014Z" fill="#E28E00"/>
<path d="M52.1209 147.23C47.5909 150.71 34.6309 149.96 34.6309 149.96C34.6309 149.96 37.8709 138.04 42.4009 134.56C46.9309 131.08 55.4709 134.59 55.4709 134.59C55.4709 134.59 56.6609 143.74 52.1309 147.22L52.1209 147.23Z" fill="white" stroke="#263238" stroke-width="2.5" stroke-linecap="round" stroke-linejoin="round"/>
<path d="M55.4716 134.6C55.4716 134.6 46.9316 131.09 42.4016 134.57C41.4916 135.27 40.6416 136.3 39.8516 137.51C40.0016 137.37 40.1616 137.24 40.3216 137.12C44.8516 133.64 53.3916 137.15 53.3916 137.15C53.3916 137.15 54.1716 143.15 52.0616 147.28C52.0816 147.26 52.1116 147.25 52.1316 147.23C56.6616 143.75 55.4716 134.6 55.4716 134.6Z" fill="white"/>
<path d="M52.1209 147.23C47.5909 150.71 34.6309 149.96 34.6309 149.96C34.6309 149.96 37.8709 138.04 42.4009 134.56C46.9309 131.08 55.4709 134.59 55.4709 134.59C55.4709 134.59 56.6609 143.74 52.1309 147.22L52.1209 147.23Z" fill="#B4E072" stroke="#263238" stroke-width="2.5" stroke-linecap="round" stroke-linejoin="round"/>
<path d="M17.4912 147.23C22.0212 150.71 34.9812 149.96 34.9812 149.96C34.9812 149.96 31.7412 138.04 27.2112 134.56C22.6812 131.08 14.1412 134.59 14.1412 134.59C14.1412 134.59 12.9512 143.74 17.4812 147.22L17.4912 147.23Z" fill="#9ABAE3"/>
<path d="M15.4812 137.93C15.4812 137.93 24.0212 134.42 28.5512 137.9C30.4912 139.39 32.2012 142.44 33.5112 145.43C32.1412 141.67 29.9112 136.63 27.2112 134.56C22.6812 131.08 14.1412 134.59 14.1412 134.59C14.1412 134.59 13.2812 141.26 15.8512 145.37C14.9812 141.73 15.4712 137.92 15.4712 137.92L15.4812 137.93Z" fill="white"/>
<path d="M17.4912 147.23C22.0212 150.71 34.9812 149.96 34.9812 149.96C34.9812 149.96 31.7412 138.04 27.2112 134.56C22.6812 131.08 14.1412 134.59 14.1412 134.59C14.1412 134.59 12.9512 143.74 17.4812 147.22L17.4912 147.23Z" fill="#B4E072" stroke="#263238" stroke-width="2.5" stroke-linecap="round" stroke-linejoin="round"/>
<path d="M43.0413 135.33C43.0613 141.04 34.6013 150.89 34.6013 150.89C34.6013 150.89 27.0913 141.09 27.0713 135.37C27.0513 129.66 35.0313 125 35.0313 125C35.0313 125 43.0313 129.61 43.0413 135.32V135.33Z" fill="#B4E072" stroke="#263238" stroke-width="2.5" stroke-linecap="round" stroke-linejoin="round"/>
<path d="M43.0413 135.33C43.0613 141.04 34.6013 150.89 34.6013 150.89C34.6013 150.89 27.0913 141.09 27.0713 135.37C27.0513 129.66 35.0313 125 35.0313 125C35.0313 125 43.0313 129.61 43.0413 135.32V135.33Z" stroke="#263238" stroke-width="2.5" stroke-linecap="round" stroke-linejoin="round"/>
<path d="M45.8609 177.44H23.0809L18.1709 150.02H50.7709L45.8609 177.44Z" fill="#FFCA70" stroke="#263238" stroke-width="2.5" stroke-linecap="round" stroke-linejoin="round"/>
<path d="M18.6509 152.71L18.1709 150.02H50.7709L45.8609 177.44H42.7409L44.9809 164.94H19.5809C19.5109 164.02 19.3309 163.12 19.0709 162.25H45.4609L47.1709 152.72H18.6509V152.71Z" fill="#FFCA70"/>
<path d="M45.8609 177.44H23.0809L18.1709 150.02H50.7709L45.8609 177.44Z" fill="#FFCA70" stroke="#263238" stroke-width="2.5" stroke-linecap="round" stroke-linejoin="round"/>
<path d="M19.4707 155.13H49.6307" stroke="#263238" stroke-width="2.5" stroke-linecap="round" stroke-linejoin="round"/>
</svg>
