<svg width="373" height="395" viewBox="0 0 373 395" fill="none" xmlns="http://www.w3.org/2000/svg">
<path d="M237.375 349.171C311.906 324.031 349.396 235.676 321.112 151.825C292.828 67.9744 209.48 20.3801 134.949 45.5204C60.4189 70.6606 22.9288 159.015 51.2129 242.866C79.4969 326.717 162.845 374.311 237.375 349.171Z" fill="#FFF9EF"/>
<path d="M65.16 147.25H293.74C298.661 147.25 302.65 151.239 302.65 156.16V299.85C302.65 304.771 298.661 308.76 293.74 308.76H65.16C60.2391 308.76 56.25 304.771 56.25 299.85V156.16C56.25 151.239 60.2391 147.25 65.16 147.25Z" fill="#FFFCF7" stroke="black" stroke-width="2.5"/>
<path d="M65.16 147.25H293.74C298.66 147.25 302.65 151.24 302.65 156.16V164.89H56.25V156.16C56.25 151.24 60.2404 147.25 65.16 147.25Z" fill="#EC644E" stroke="black" stroke-width="2.5"/>
<path d="M262.61 159.99C264.598 159.99 266.21 158.378 266.21 156.39C266.21 154.402 264.598 152.79 262.61 152.79C260.622 152.79 259.01 154.402 259.01 156.39C259.01 158.378 260.622 159.99 262.61 159.99Z" stroke="black" stroke-width="1.5" stroke-linejoin="round"/>
<path d="M276.06 159.99C278.048 159.99 279.66 158.378 279.66 156.39C279.66 154.402 278.048 152.79 276.06 152.79C274.072 152.79 272.46 154.402 272.46 156.39C272.46 158.378 274.072 159.99 276.06 159.99Z" stroke="black" stroke-width="1.5" stroke-linejoin="round"/>
<path d="M289.51 159.99C291.498 159.99 293.11 158.378 293.11 156.39C293.11 154.402 291.498 152.79 289.51 152.79C287.522 152.79 285.91 154.402 285.91 156.39C285.91 158.378 287.522 159.99 289.51 159.99Z" stroke="black" stroke-width="1.5" stroke-linejoin="round"/>
<path d="M148.659 193.318L148.661 193.319C150.607 194.935 153.211 196.819 156.06 197.194V197.27H157.06H233.92C236.127 197.27 237.91 199.052 237.91 201.26V275.29C237.91 277.498 236.127 279.28 233.92 279.28H119.71C117.502 279.28 115.72 277.498 115.72 275.29V191.96C115.72 190.454 116.94 189.24 118.44 189.24H141.06C142.81 189.24 144.536 189.877 146.009 191.107L146.009 191.108L148.659 193.318Z" fill="#FFCA70" stroke="black" stroke-width="2"/>
<path d="M330.8 305.95C330.8 309.84 321.75 312.98 310.58 312.98C299.41 312.98 290.36 309.83 290.36 305.95C290.36 302.07 299.41 298.91 310.58 298.91C321.75 298.91 330.8 302.06 330.8 305.95Z" fill="#DFDFEB"/>
<path d="M310.13 201.31C310.13 201.31 304.01 201.88 306.1 186.05C308.08 171.01 315.66 160.05 316.24 160C316.24 160 327.14 175.64 320.31 189.21C313.48 202.77 310.14 201.31 310.14 201.31H310.13Z" fill="#B4E072" stroke="black" stroke-width="2.5"/>
<path d="M360.18 178.42C360.18 178.42 346.17 195.21 312.08 207.03C312.08 207.03 311.87 202.55 323.66 191.72C335.45 180.89 361.81 173.27 360.18 178.41V178.42Z" fill="#B4E072" stroke="black" stroke-width="2.5"/>
<path d="M312.08 207.03C312.08 207.03 309.98 209.7 309.72 215.45" stroke="black" stroke-width="2" stroke-miterlimit="10" stroke-linecap="round"/>
<path d="M260.072 216.364C260.072 216.364 274.032 230.235 308 240C308 240 308.209 236.299 296.461 227.352C284.713 218.405 258.448 212.11 260.072 216.356V216.364Z" fill="#B4E072" stroke="black" stroke-width="2.5"/>
<path d="M278.59 245.28C278.59 245.28 287.91 252.9 308.12 246.8C308.12 246.8 307.86 242.9 300.3 239.29C292.74 235.68 277.24 241.69 278.59 245.28Z" fill="#B4E072" stroke="black" stroke-width="2.5"/>
<path d="M356.58 205.23C356.58 205.23 346.79 231.57 312.7 243.4C312.7 243.4 311.53 228.53 323.31 217.7C335.1 206.87 358.2 200.09 356.57 205.23H356.58Z" fill="#B4E072" stroke="black" stroke-width="2.5"/>
<path d="M312.7 243.4C312.7 243.4 310.52 247.35 310.26 253.09" stroke="black" stroke-width="2" stroke-miterlimit="10" stroke-linecap="round"/>
<path d="M308 216C308 216 301.29 215.95 290 214.5C278.7 213.05 262 202.5 259 200.15C259 200.15 282.5 192 306.5 212.59L308 216Z" fill="#B4E072" stroke="black" stroke-width="2.5"/>
<path d="M312.16 273.35C309.36 249.97 307.22 230.87 310.5 200.5" stroke="black" stroke-width="2.5" stroke-miterlimit="10" stroke-linecap="round"/>
<path d="M306 212C311.81 215.5 309.01 219.47 308.64 224.61" stroke="black" stroke-width="2" stroke-miterlimit="10" stroke-linecap="round"/>
<path d="M296.27 304.16V304.059L296.254 303.959L289.91 264.93H331.471L325.127 303.959L325.11 304.059V304.16C325.11 304.165 325.11 304.177 325.101 304.201C325.092 304.228 325.071 304.274 325.025 304.338C324.928 304.474 324.745 304.658 324.428 304.873C323.788 305.306 322.781 305.745 321.425 306.133C318.729 306.906 314.933 307.4 310.69 307.4C306.448 307.4 302.652 306.906 299.956 306.133C298.6 305.745 297.593 305.306 296.953 304.873C296.636 304.658 296.453 304.474 296.356 304.338C296.31 304.274 296.289 304.228 296.28 304.201C296.271 304.177 296.27 304.165 296.27 304.16Z" fill="#FFCA70" stroke="black" stroke-width="2.5"/>
<path d="M310.69 268.17C322.973 268.17 332.93 266.16 332.93 263.68C332.93 261.2 322.973 259.19 310.69 259.19C298.407 259.19 288.45 261.2 288.45 263.68C288.45 266.16 298.407 268.17 310.69 268.17Z" fill="black" stroke="black" stroke-width="2"/>
<path d="M111.186 114.552C117.696 108.142 121.566 99.0523 120.986 89.0723C120.006 72.0923 105.936 58.4723 88.9363 58.0123C69.2363 57.4823 53.2963 74.1923 55.1463 94.1323L111.186 114.552ZM111.186 114.552C110.226 115.502 109.776 116.852 110.006 118.182L111.186 114.552ZM119.738 89.1443L119.738 89.1448C120.297 98.749 116.575 107.493 110.309 113.662L110.307 113.664C109.066 114.892 108.474 116.648 108.774 118.392C108.774 118.393 108.774 118.394 108.775 118.395L110.154 126.541C110.402 128.004 108.83 129.092 107.547 128.345L98.0357 122.802L98.0346 122.802C96.9212 122.154 95.6036 121.915 94.326 122.166L94.3199 122.167C90.7786 122.879 87.0354 123.014 83.1638 122.426L83.1634 122.426C68.8724 120.263 57.7087 108.416 56.3911 94.0184L56.391 94.0168C54.6108 74.8295 69.9453 58.7518 88.9025 59.2618C105.255 59.7043 118.796 72.8138 119.738 89.1443Z" fill="#FFCA70" stroke="black" stroke-width="2.5"/>
<path d="M87.2763 104.122C87.2763 104.342 87.2271 104.44 87.1747 104.508C87.1597 104.51 87.1374 104.512 87.1063 104.512H87.0006C86.9956 104.501 86.99 104.486 86.9842 104.466C86.9657 104.405 86.9463 104.299 86.9463 104.132C86.9463 103.894 86.9997 103.801 87.0371 103.754C87.046 103.745 87.0516 103.74 87.0534 103.739C87.0535 103.739 87.0536 103.739 87.0537 103.738C87.055 103.738 87.0572 103.737 87.0606 103.737C87.0688 103.735 87.0865 103.732 87.1163 103.732C87.1673 103.732 87.2044 103.736 87.23 103.739C87.2328 103.748 87.2357 103.757 87.2387 103.768C87.2575 103.835 87.2763 103.947 87.2763 104.122Z" fill="black" stroke="black" stroke-width="2.5"/>
<path d="M149.988 234H147.468L141.762 225.378V234H139.242V221.418H141.762L147.468 230.058V221.418H149.988V234ZM156.906 234.162C155.946 234.162 155.082 233.952 154.314 233.532C153.546 233.1 152.94 232.494 152.496 231.714C152.064 230.934 151.848 230.034 151.848 229.014C151.848 227.994 152.07 227.094 152.514 226.314C152.97 225.534 153.588 224.934 154.368 224.514C155.148 224.082 156.018 223.866 156.978 223.866C157.938 223.866 158.808 224.082 159.588 224.514C160.368 224.934 160.98 225.534 161.424 226.314C161.88 227.094 162.108 227.994 162.108 229.014C162.108 230.034 161.874 230.934 161.406 231.714C160.95 232.494 160.326 233.1 159.534 233.532C158.754 233.952 157.878 234.162 156.906 234.162ZM156.906 231.966C157.362 231.966 157.788 231.858 158.184 231.642C158.592 231.414 158.916 231.078 159.156 230.634C159.396 230.19 159.516 229.65 159.516 229.014C159.516 228.066 159.264 227.34 158.76 226.836C158.268 226.32 157.662 226.062 156.942 226.062C156.222 226.062 155.616 226.32 155.124 226.836C154.644 227.34 154.404 228.066 154.404 229.014C154.404 229.962 154.638 230.694 155.106 231.21C155.586 231.714 156.186 231.966 156.906 231.966ZM174.726 234L171.954 229.104H170.766V234H168.246V221.436H172.962C173.934 221.436 174.762 221.61 175.446 221.958C176.13 222.294 176.64 222.756 176.976 223.344C177.324 223.92 177.498 224.568 177.498 225.288C177.498 226.116 177.258 226.866 176.778 227.538C176.298 228.198 175.584 228.654 174.636 228.906L177.642 234H174.726ZM170.766 227.214H172.872C173.556 227.214 174.066 227.052 174.402 226.728C174.738 226.392 174.906 225.93 174.906 225.342C174.906 224.766 174.738 224.322 174.402 224.01C174.066 223.686 173.556 223.524 172.872 223.524H170.766V227.214ZM189.047 228.798C189.047 229.158 189.023 229.482 188.975 229.77H181.685C181.745 230.49 181.997 231.054 182.441 231.462C182.885 231.87 183.431 232.074 184.079 232.074C185.015 232.074 185.681 231.672 186.077 230.868H188.795C188.507 231.828 187.955 232.62 187.139 233.244C186.323 233.856 185.321 234.162 184.133 234.162C183.173 234.162 182.309 233.952 181.541 233.532C180.785 233.1 180.191 232.494 179.759 231.714C179.339 230.934 179.129 230.034 179.129 229.014C179.129 227.982 179.339 227.076 179.759 226.296C180.179 225.516 180.767 224.916 181.523 224.496C182.279 224.076 183.149 223.866 184.133 223.866C185.081 223.866 185.927 224.07 186.671 224.478C187.427 224.886 188.009 225.468 188.417 226.224C188.837 226.968 189.047 227.826 189.047 228.798ZM186.437 228.078C186.425 227.43 186.191 226.914 185.735 226.53C185.279 226.134 184.721 225.936 184.061 225.936C183.437 225.936 182.909 226.128 182.477 226.512C182.057 226.884 181.799 227.406 181.703 228.078H186.437ZM194.703 234.162C193.887 234.162 193.155 234.018 192.507 233.73C191.859 233.43 191.343 233.028 190.959 232.524C190.587 232.02 190.383 231.462 190.347 230.85H192.885C192.933 231.234 193.119 231.552 193.443 231.804C193.779 232.056 194.193 232.182 194.685 232.182C195.165 232.182 195.537 232.086 195.801 231.894C196.077 231.702 196.215 231.456 196.215 231.156C196.215 230.832 196.047 230.592 195.711 230.436C195.387 230.268 194.865 230.088 194.145 229.896C193.401 229.716 192.789 229.53 192.309 229.338C191.841 229.146 191.433 228.852 191.085 228.456C190.749 228.06 190.581 227.526 190.581 226.854C190.581 226.302 190.737 225.798 191.049 225.342C191.373 224.886 191.829 224.526 192.417 224.262C193.017 223.998 193.719 223.866 194.523 223.866C195.711 223.866 196.659 224.166 197.367 224.766C198.075 225.354 198.465 226.152 198.537 227.16H196.125C196.089 226.764 195.921 226.452 195.621 226.224C195.333 225.984 194.943 225.864 194.451 225.864C193.995 225.864 193.641 225.948 193.389 226.116C193.149 226.284 193.029 226.518 193.029 226.818C193.029 227.154 193.197 227.412 193.533 227.592C193.869 227.76 194.391 227.934 195.099 228.114C195.819 228.294 196.413 228.48 196.881 228.672C197.349 228.864 197.751 229.164 198.087 229.572C198.435 229.968 198.615 230.496 198.627 231.156C198.627 231.732 198.465 232.248 198.141 232.704C197.829 233.16 197.373 233.52 196.773 233.784C196.185 234.036 195.495 234.162 194.703 234.162ZM210.109 224.028V234H207.571V232.74C207.247 233.172 206.821 233.514 206.293 233.766C205.777 234.006 205.213 234.126 204.601 234.126C203.821 234.126 203.131 233.964 202.531 233.64C201.931 233.304 201.457 232.818 201.109 232.182C200.773 231.534 200.605 230.766 200.605 229.878V224.028H203.125V229.518C203.125 230.31 203.323 230.922 203.719 231.354C204.115 231.774 204.655 231.984 205.339 231.984C206.035 231.984 206.581 231.774 206.977 231.354C207.373 230.922 207.571 230.31 207.571 229.518V224.028H210.109ZM215.116 220.68V234H212.596V220.68H215.116ZM220.539 226.098V230.922C220.539 231.258 220.617 231.504 220.773 231.66C220.941 231.804 221.217 231.876 221.601 231.876H222.771V234H221.187C219.063 234 218.001 232.968 218.001 230.904V226.098H216.813V224.028H218.001V221.562H220.539V224.028H222.771V226.098H220.539ZM147 248.436V250.47H141.762V253.692H145.776V255.69H141.762V261H139.242V248.436H147ZM153.215 261.162C152.255 261.162 151.391 260.952 150.623 260.532C149.855 260.1 149.249 259.494 148.805 258.714C148.373 257.934 148.157 257.034 148.157 256.014C148.157 254.994 148.379 254.094 148.823 253.314C149.279 252.534 149.897 251.934 150.677 251.514C151.457 251.082 152.327 250.866 153.287 250.866C154.247 250.866 155.117 251.082 155.897 251.514C156.677 251.934 157.289 252.534 157.733 253.314C158.189 254.094 158.417 254.994 158.417 256.014C158.417 257.034 158.183 257.934 157.715 258.714C157.259 259.494 156.635 260.1 155.843 260.532C155.063 260.952 154.187 261.162 153.215 261.162ZM153.215 258.966C153.671 258.966 154.097 258.858 154.493 258.642C154.901 258.414 155.225 258.078 155.465 257.634C155.705 257.19 155.825 256.65 155.825 256.014C155.825 255.066 155.573 254.34 155.069 253.836C154.577 253.32 153.971 253.062 153.251 253.062C152.531 253.062 151.925 253.32 151.433 253.836C150.953 254.34 150.713 255.066 150.713 256.014C150.713 256.962 150.947 257.694 151.415 258.21C151.895 258.714 152.495 258.966 153.215 258.966ZM169.679 251.028V261H167.141V259.74C166.817 260.172 166.391 260.514 165.863 260.766C165.347 261.006 164.783 261.126 164.171 261.126C163.391 261.126 162.701 260.964 162.101 260.64C161.501 260.304 161.027 259.818 160.679 259.182C160.343 258.534 160.175 257.766 160.175 256.878V251.028H162.695V256.518C162.695 257.31 162.893 257.922 163.289 258.354C163.685 258.774 164.225 258.984 164.909 258.984C165.605 258.984 166.151 258.774 166.547 258.354C166.943 257.922 167.141 257.31 167.141 256.518V251.028H169.679ZM177.692 250.884C178.88 250.884 179.84 251.262 180.572 252.018C181.304 252.762 181.67 253.806 181.67 255.15V261H179.15V255.492C179.15 254.7 178.952 254.094 178.556 253.674C178.16 253.242 177.62 253.026 176.936 253.026C176.24 253.026 175.688 253.242 175.28 253.674C174.884 254.094 174.686 254.7 174.686 255.492V261H172.166V251.028H174.686V252.27C175.022 251.838 175.448 251.502 175.964 251.262C176.492 251.01 177.068 250.884 177.692 250.884ZM183.418 255.978C183.418 254.97 183.616 254.076 184.012 253.296C184.42 252.516 184.972 251.916 185.668 251.496C186.364 251.076 187.138 250.866 187.99 250.866C188.638 250.866 189.256 251.01 189.844 251.298C190.432 251.574 190.9 251.946 191.248 252.414V247.68H193.804V261H191.248V259.524C190.936 260.016 190.498 260.412 189.934 260.712C189.37 261.012 188.716 261.162 187.972 261.162C187.132 261.162 186.364 260.946 185.668 260.514C184.972 260.082 184.42 259.476 184.012 258.696C183.616 257.904 183.418 256.998 183.418 255.978ZM191.266 256.014C191.266 255.402 191.146 254.88 190.906 254.448C190.666 254.004 190.342 253.668 189.934 253.44C189.526 253.2 189.088 253.08 188.62 253.08C188.152 253.08 187.72 253.194 187.324 253.422C186.928 253.65 186.604 253.986 186.352 254.43C186.112 254.862 185.992 255.378 185.992 255.978C185.992 256.578 186.112 257.106 186.352 257.562C186.604 258.006 186.928 258.348 187.324 258.588C187.732 258.828 188.164 258.948 188.62 258.948C189.088 258.948 189.526 258.834 189.934 258.606C190.342 258.366 190.666 258.03 190.906 257.598C191.146 257.154 191.266 256.626 191.266 256.014Z" fill="#E28E00"/>
<path d="M85.1209 279.23C80.5909 282.71 67.6309 281.96 67.6309 281.96C67.6309 281.96 70.8709 270.04 75.4009 266.56C79.9309 263.08 88.4709 266.59 88.4709 266.59C88.4709 266.59 89.6609 275.74 85.1309 279.22L85.1209 279.23Z" fill="white" stroke="#263238" stroke-width="2.5" stroke-linecap="round" stroke-linejoin="round"/>
<path d="M88.4716 266.6C88.4716 266.6 79.9316 263.09 75.4016 266.57C74.4916 267.27 73.6416 268.3 72.8516 269.51C73.0016 269.37 73.1616 269.24 73.3216 269.12C77.8516 265.64 86.3916 269.15 86.3916 269.15C86.3916 269.15 87.1716 275.15 85.0616 279.28C85.0816 279.26 85.1116 279.25 85.1316 279.23C89.6616 275.75 88.4716 266.6 88.4716 266.6Z" fill="white"/>
<path d="M85.1209 279.23C80.5909 282.71 67.6309 281.96 67.6309 281.96C67.6309 281.96 70.8709 270.04 75.4009 266.56C79.9309 263.08 88.4709 266.59 88.4709 266.59C88.4709 266.59 89.6609 275.74 85.1309 279.22L85.1209 279.23Z" fill="#B4E072" stroke="#263238" stroke-width="2.5" stroke-linecap="round" stroke-linejoin="round"/>
<path d="M50.4912 279.23C55.0212 282.71 67.9812 281.96 67.9812 281.96C67.9812 281.96 64.7412 270.04 60.2112 266.56C55.6812 263.08 47.1412 266.59 47.1412 266.59C47.1412 266.59 45.9512 275.74 50.4812 279.22L50.4912 279.23Z" fill="#9ABAE3"/>
<path d="M48.4812 269.93C48.4812 269.93 57.0212 266.42 61.5512 269.9C63.4912 271.39 65.2012 274.44 66.5112 277.43C65.1412 273.67 62.9112 268.63 60.2112 266.56C55.6812 263.08 47.1412 266.59 47.1412 266.59C47.1412 266.59 46.2812 273.26 48.8512 277.37C47.9812 273.73 48.4712 269.92 48.4712 269.92L48.4812 269.93Z" fill="white"/>
<path d="M50.4912 279.23C55.0212 282.71 67.9812 281.96 67.9812 281.96C67.9812 281.96 64.7412 270.04 60.2112 266.56C55.6812 263.08 47.1412 266.59 47.1412 266.59C47.1412 266.59 45.9512 275.74 50.4812 279.22L50.4912 279.23Z" fill="#B4E072" stroke="#263238" stroke-width="2.5" stroke-linecap="round" stroke-linejoin="round"/>
<path d="M76.0413 267.33C76.0613 273.04 67.6013 282.89 67.6013 282.89C67.6013 282.89 60.0913 273.09 60.0713 267.37C60.0513 261.66 68.0313 257 68.0313 257C68.0313 257 76.0313 261.61 76.0413 267.32V267.33Z" fill="#B4E072" stroke="#263238" stroke-width="2.5" stroke-linecap="round" stroke-linejoin="round"/>
<path d="M76.0413 267.33C76.0613 273.04 67.6013 282.89 67.6013 282.89C67.6013 282.89 60.0913 273.09 60.0713 267.37C60.0513 261.66 68.0313 257 68.0313 257C68.0313 257 76.0313 261.61 76.0413 267.32V267.33Z" stroke="#263238" stroke-width="2.5" stroke-linecap="round" stroke-linejoin="round"/>
<path d="M78.8609 309.44H56.0809L51.1709 282.02H83.7709L78.8609 309.44Z" fill="#FFCA70" stroke="#263238" stroke-width="2.5" stroke-linecap="round" stroke-linejoin="round"/>
<path d="M51.6509 284.71L51.1709 282.02H83.7709L78.8609 309.44H75.7409L77.9809 296.94H52.5809C52.5109 296.02 52.3309 295.12 52.0709 294.25H78.4609L80.1709 284.72H51.6509V284.71Z" fill="#FFCA70"/>
<path d="M78.8609 309.44H56.0809L51.1709 282.02H83.7709L78.8609 309.44Z" fill="#FFCA70" stroke="#263238" stroke-width="2.5" stroke-linecap="round" stroke-linejoin="round"/>
<path d="M52.4707 287.13H82.6307" stroke="#263238" stroke-width="2.5" stroke-linecap="round" stroke-linejoin="round"/>
</svg>
